<?xml version="1.0" encoding="UTF-8" standalone="no"?>
<svg width="872px" height="490px" viewBox="0 0 872 490" version="1.1" xmlns="http://www.w3.org/2000/svg" xmlns:xlink="http://www.w3.org/1999/xlink">
    <!-- Generator: Sketch 39.1 (31720) - http://www.bohemiancoding.com/sketch -->
    <title>Desktop Copy 3</title>
    <desc>Created with Sketch.</desc>
    <defs></defs>
    <g id="Page-1" stroke="none" stroke-width="1" fill="none" fill-rule="evenodd">
        <g id="Desktop-Copy-3" fill="#E61717">
            <polygon id="Combined-Shape-Copy" stroke="#E61717" points="760 117.149621 709.605989 188.312468 625.199966 307.449892"></polygon>
            <polyline id="Combined-Shape-Copy" points="760 117.149621 701.27198 117.149621 632.554454 117.149621 709.605989 188.312468"></polyline>
            <polygon id="BALL-path" points="542.770475 328.618427 492.69801 328.618427 492.69801 114 435.630127 114 435.630127 375.542169 542.770475 375.542169 542.770475 328.618427"></polygon>
            <polygon id="BALL-path" points="654.881254 328.618427 604.808789 328.618427 604.808789 114 547.740904 114 547.740904 375.542169 654.881254 375.542169 654.881254 328.618427"></polygon>
            <path d="M388.31901,114 L300.692196,114 L257.983328,375.542169 L313.946672,375.542169 L321.310269,321.695253 L365.123677,321.695253 L372.487274,375.542169 L431.764239,375.542169 L388.31901,114 Z M325.360249,276.694614 L342.664704,157.077534 L344.505602,157.077534 L360.705518,276.694614 L325.360249,276.694614 Z" id="Combined-Shape"></path>
            <path d="M195.576836,375.542169 C243.808402,375.542169 259.271958,361.695819 259.271958,306.310418 C259.271958,257.078951 250.43564,247.848051 218.772169,241.309497 L218.772169,240.155635 C247.858381,234.386322 254.853799,223.616938 254.853799,182.84713 C254.853799,125.538625 240.494783,114 190.054138,114 L112,114 L112,375.542169 L195.576836,375.542169 Z M165.754265,330.926152 L165.754265,263.232885 L179.376921,263.232885 C198.890455,263.232885 204.413153,269.386818 204.413153,297.079519 C204.413153,325.156839 200.363175,330.926152 179.376921,330.926152 L165.754265,330.926152 Z M165.754265,220.539972 L165.754265,157.846775 L179.376921,157.846775 C198.154095,157.846775 201.099534,162.077605 201.099534,188.616442 C201.099534,217.463005 197.417735,220.539972 179.376921,220.539972 L165.754265,220.539972 Z" id="Combined-Shape"></path>
            <polygon id="Combined-Shape-Copy-2" points="709.605989 188.312468 760 234.855154 625.199966 307.449892"></polygon>
        </g>
    </g>
</svg>