<?xml version="1.0" encoding="UTF-8" standalone="no"?>
<svg width="29px" height="29px" viewBox="0 0 29 29" version="1.1" xmlns="http://www.w3.org/2000/svg" xmlns:xlink="http://www.w3.org/1999/xlink">
    <!-- Generator: Sketch 39.1 (31720) - http://www.bohemiancoding.com/sketch -->
    <title>bvlix</title>
    <desc>Created with Sketch.</desc>
    <defs></defs>
    <g id="Page-1" stroke="none" stroke-width="1" fill="none" fill-rule="evenodd">
        <g id="Desktop-Copy-9" transform="translate(-439.000000, -435.000000)" fill="#E61717">
            <g id="bvlix" transform="translate(453.500000, 449.500000) scale(-1, 1) translate(-453.500000, -449.500000) translate(439.000000, 435.000000)">
                <path d="M16.4511275,19.950187 C16.3590546,19.9620145 16.2610181,19.9722787 16.1570177,19.9809797 L16.0798832,19.8890544 C16.1506743,19.6207874 16.1386536,19.4742266 16.043821,19.4493675 C15.9489883,19.4245085 15.8935589,19.3143719 15.8775312,19.1189546 C15.8775312,19.1189546 15.6701712,19.136303 15.255445,19.1710003 C15.1525985,19.0484325 15.1100247,18.9536167 15.1277225,18.88655 C15.1454203,18.8194832 15.1028465,18.7246674 15,18.6020997 C15.1736376,18.4564004 15.3078707,18.3959812 15.4027034,18.4208403 C15.4975361,18.4456993 15.5369379,18.3604215 15.5209102,18.1650041 C15.607729,18.0921545 15.6856978,18.0528388 15.7548188,18.0470559 C15.8239398,18.0412731 15.9019086,18.0019574 15.9887274,17.9291078 C16.1429972,18.1129594 16.0899047,18.3141566 15.8294483,18.5327055 C15.7426295,18.6055551 15.724932,18.6726208 15.7763552,18.7339047 C15.8277785,18.7951885 15.8968985,18.7894057 15.9837173,18.7165561 C16.2087782,18.6321407 16.3341625,18.6052544 16.3598742,18.6358963 C16.3855858,18.6665383 16.4675614,18.6760762 16.6058035,18.6645104 L16.8191477,18.4854934 C16.7827541,18.3856961 16.9519535,18.2246573 17.3267484,18.0023742 C17.3267484,18.0023742 17.481141,17.9108072 17.7899307,17.7276703 C17.4498724,17.3731965 17.5422157,16.9013194 18.0669634,16.3120246 C18.2213583,16.2204562 18.2959489,16.1298725 18.2907375,16.0402707 C18.285526,15.9506689 18.3601166,15.8600852 18.5145115,15.7685168 C18.761738,15.8999695 18.849357,16.0333868 18.777371,16.1687728 C18.7060626,16.3028845 18.6486381,16.4230765 18.6050974,16.5293496 C18.7347906,16.513582 18.8797414,16.4399885 19.0399536,16.3085671 C19.1788454,16.1218672 19.3641123,15.9598268 19.595757,15.822443 C19.883701,15.2808991 19.9864671,14.9882228 19.9040582,14.9444052 C19.7711072,14.7419608 19.7714581,14.460461 19.9051118,14.0999004 C19.8157489,14.1191347 19.7314217,14.1620188 19.6521298,14.2285527 L19.0661058,14.7202852 C19.1529246,14.6474356 19.2051821,14.5774784 19.2228799,14.5104117 C19.2405776,14.443345 19.2928351,14.3733878 19.3796539,14.3005382 L19.48584,13.8981397 C19.5726588,13.8252901 19.6506276,13.7859744 19.7197486,13.7801916 C19.7888696,13.7744087 19.8845359,13.6680273 20.0067502,13.4610442 C19.9447475,13.3871521 19.9767994,13.3292287 20.102907,13.2872734 C20.0640916,13.2262507 20.0025331,13.1733275 19.9182315,13.1285035 C19.6302875,13.6700474 19.4091213,13.9865988 19.2547265,14.0781672 C19.1003316,14.1697356 18.9615731,14.5301039 18.8384469,15.159283 C18.7664609,15.2946689 18.6532721,15.4081444 18.4988773,15.4997128 C18.4060456,15.2766917 18.3982285,15.1422911 18.475426,15.0965069 C18.5526234,15.0507227 18.6220026,14.8705385 18.6835658,14.555949 C18.8995238,14.1497911 18.9970785,13.7675143 18.9762328,13.4091072 C18.9449642,12.8714966 19.2021228,12.4872532 19.7477162,12.2563656 C19.6653073,12.212548 19.6960884,12.0552556 19.8400604,11.7844837 C19.8296376,11.6052801 19.8964112,11.3802958 20.0403832,11.1095238 L20.0716516,11.6471317 C20.3804413,11.4639949 20.4524262,11.328611 20.2876085,11.2409758 L19.7931578,10.9780718 C20.3074827,10.2095735 20.6626829,10.1379483 20.8587692,10.763194 C20.8796149,11.1216011 20.92603,11.23311 20.998016,11.097724 C21.3172286,11.0937907 21.4611984,10.8230229 21.4299299,10.2854122 C21.5123387,10.3292298 21.5715388,10.3172923 21.6075318,10.2495993 C21.6435248,10.1819063 21.7027248,10.1699688 21.7851337,10.2137863 L21.8931121,10.0107084 L21.3986615,9.74780431 C21.5530563,9.6562359 21.6662451,9.54276041 21.7382311,9.40737444 C21.8102171,9.27198846 21.9593982,9.090821 22.1857791,8.86386662 L21.9385538,8.73241458 C21.7121729,8.95936896 21.5397842,9.08478198 21.4213823,9.10865741 C21.3029804,9.13253283 21.0893879,9.2360374 20.7805982,9.41917422 L20.5333728,9.28772218 C20.8317397,8.92538182 20.9783152,8.69941414 20.9731038,8.60981237 C20.9678924,8.52021061 20.9908564,8.22851757 21.0419967,7.73472452 L21.2892221,7.86617655 C21.3716309,7.90999412 21.4514329,7.90901081 21.5286303,7.86322661 C21.6058277,7.8174424 21.6856296,7.8164591 21.7680385,7.86027666 C21.7064754,8.17486618 21.8405095,8.41979239 22.1701449,8.59506265 C22.2525538,8.63888021 22.3323557,8.63789691 22.4095531,8.5921127 C22.4867505,8.5463285 22.5665525,8.54534519 22.6489613,8.58916276 L22.7569398,8.38608481 C22.6641081,8.16306371 22.6792552,7.73697003 22.8023815,7.10779101 C23.0391852,7.06004016 23.198789,7.05807355 23.2811979,7.10189112 C23.3636068,7.14570868 23.4152333,7.34681799 23.436079,7.70522507 L22.8961867,8.7206148 L22.6489613,8.58916276 C22.6593842,8.7683663 22.5566182,9.06104264 22.3406602,9.46720056 C22.567041,9.24024618 22.8346223,9.03520365 23.143412,8.85206684 L23.1590462,9.1208708 C23.2518779,9.3438919 23.3934856,9.37577128 23.5838734,9.21650988 C23.7742613,9.05724849 23.9158689,9.08912786 24.0087006,9.31214897 C23.8543058,9.40371738 23.7179095,9.46143843 23.5995076,9.48531385 C23.4811058,9.50918927 23.308717,9.63460229 23.0823362,9.86155668 L23.2617113,9.95693215 C23.3274889,9.93334058 23.3999569,9.91772233 23.4791154,9.91007737 C23.5458404,9.87580813 23.6097235,9.84688359 23.6707647,9.82330372 C23.6901817,9.76479196 23.7550913,9.68921706 23.865494,9.59657823 C23.9008895,9.46244474 24.0054045,9.32253047 24.1790421,9.17683122 L24.072856,9.57922967 C24.3493402,9.55609814 24.4361577,9.48324961 24.3333111,9.36068188 L24.0247731,8.99298055 C24.5971092,8.61716665 24.8816029,8.69174268 24.8782628,9.21671087 C24.8074718,9.48497785 24.8154855,9.58268506 24.9023043,9.50983543 C25.1433929,9.62083739 25.3170279,9.47514032 25.4232145,9.07273985 C25.4746378,9.13402372 25.5220534,9.14645305 25.5654628,9.11002824 C25.6088722,9.07360343 25.6562878,9.08603277 25.7077111,9.14731663 L25.8379387,9.03804273 L25.5294006,8.6703414 C25.6676427,8.65877564 25.7801714,8.61656857 25.8669902,8.54371895 C25.953809,8.47086932 26.1097465,8.39223799 26.3348074,8.3078226 L26.1805384,8.12397193 C25.9554775,8.20838732 25.7955331,8.23816505 25.7007005,8.213306 C25.6058678,8.18844695 25.4202122,8.18758321 25.143728,8.21071473 L24.989459,8.02686407 C25.3013387,7.86959905 25.4661249,7.75743485 25.4838227,7.69036811 C25.5015205,7.62330136 25.589173,7.41921275 25.7467829,7.07809615 L25.9010519,7.26194681 C25.9524752,7.32323067 26.0127464,7.35098075 26.0818675,7.34519787 C26.1509885,7.33941498 26.2112597,7.36716506 26.262683,7.42844892 C26.1404687,7.63543203 26.1822074,7.86148792 26.3879005,8.10662337 C26.4393237,8.16790723 26.499595,8.19565731 26.568716,8.18987442 C26.637837,8.18409154 26.6981083,8.21184162 26.7495316,8.27312548 L26.8797591,8.16385158 C26.8637314,7.96843423 26.9779301,7.66374701 27.2223588,7.24978078 C27.4120242,7.29949888 27.5325667,7.35499903 27.5839899,7.41628289 C27.6354132,7.47756675 27.6257294,7.6423397 27.5549384,7.91060668 L26.9038006,8.45697614 L26.7495316,8.27312548 C26.714136,8.40725897 26.5662123,8.58359751 26.3057558,8.80214639 C26.5308167,8.71773099 26.7815855,8.66395834 27.0580696,8.64082681 L27.0049766,8.84202604 C27.0210043,9.03744339 27.1198424,9.11115567 27.3014939,9.06316509 C27.4831454,9.01517451 27.5819835,9.08888679 27.5980112,9.28430414 C27.4597691,9.29586991 27.3432335,9.28922337 27.2484008,9.26436432 C27.1535682,9.23950527 26.9936238,9.26928299 26.7685629,9.35369838 L26.9228319,9.53754905 C27.1993161,9.51441752 27.410683,9.54592274 27.5569389,9.63206565 C27.7031948,9.71820856 27.8888504,9.71907231 28.1139113,9.63465692 C28.1139113,9.63465692 28.0785163,9.76878839 28.0077252,10.0370554 L27.8003632,10.0544039 C27.7489399,9.99312007 27.7409262,9.89541286 27.7763217,9.76127937 C27.6026841,9.90697862 27.4813066,9.98271855 27.4121855,9.98850144 C27.3430645,9.99428432 27.2650958,10.0336 27.178277,10.1064496 C27.0914582,10.1792992 27.0303519,10.2827892 26.9949564,10.4169227 C27.2554128,10.1983739 27.350244,10.2232325 27.2794529,10.4914995 C27.2440574,10.625633 27.1395424,10.7655473 26.9659048,10.9112465 C27.0687513,11.0338142 27.1892938,11.0893144 27.3275359,11.0777486 C27.465778,11.0661829 27.4995029,11.1945315 27.4287119,11.4627985 C27.3418931,11.5356481 27.3241956,11.6027139 27.3756188,11.6639977 C26.9962882,11.5645615 26.8066257,11.5148442 26.8066257,11.5148442 C26.6009326,11.2697088 26.6283139,11.0378701 26.8887703,10.8193212 C27.0624079,10.6736219 27.0978029,10.5394905 26.9949564,10.4169227 C26.8213188,10.562622 26.6653813,10.6412533 26.5271392,10.6528191 C26.3888971,10.6643848 26.2843821,10.8042991 26.213591,11.0725661 C26.1621678,11.0112822 26.0930478,11.017065 26.006229,11.0899147 C25.8679869,11.1014804 25.7554581,11.1436875 25.6686393,11.2165371 C25.7200626,11.277821 25.7537876,11.4061697 25.7698153,11.601587 C25.6315733,11.6131528 25.5190445,11.6553598 25.4322257,11.7282095 C25.3454069,11.8010591 25.2328781,11.8432661 25.0946361,11.8548319 C25.1106638,12.0502493 25.0535644,12.2025929 24.9233362,12.3118673 C24.793108,12.4211417 24.8662349,12.4642126 25.142719,12.441081 C24.8982903,12.8550473 24.7583803,13.129093 24.7229848,13.2632265 C24.9286778,13.5083619 24.7710703,13.8494734 24.2501575,14.2865712 L24.7900991,14.9300485 L24.9203266,14.8207746 L25.0505542,14.7115007 C25.0151587,14.8456342 24.9106437,14.9855485 24.737006,15.1312478 C24.6855828,15.0699639 24.6381672,15.0575346 24.5947578,15.0939594 C24.5513484,15.1303842 24.5039327,15.1179548 24.4525095,15.056671 L24.375375,14.9647456 C24.2531606,15.1717288 24.1751919,15.2110444 24.1414664,15.0826938 C24.1077409,14.9543432 24.0474696,14.9265931 23.9606508,14.9994428 C23.873832,15.0722924 23.6921833,15.1202823 23.4156991,15.1434138 C23.5185457,15.2659815 23.6647994,15.3521231 23.8544647,15.4018412 L23.7242372,15.5111151 L23.6711441,15.7123143 C23.6871719,15.9077317 23.7980306,16.1280048 24.0037237,16.3731402 C23.8300861,16.5188395 23.6918461,16.5304051 23.5889995,16.4078374 C23.5215485,16.1511361 23.331886,16.1014188 23.0200064,16.2586838 C22.7950079,16.3885449 22.5730954,16.4659296 22.3542667,16.490838 C22.2932459,16.6774385 22.1978271,16.8928135 22.0680103,17.1369634 L22.9332989,17.5970455 L23.0412774,17.3939676 L23.1492559,17.1908896 C23.1596787,17.3700932 23.0929051,17.5950776 22.9489331,17.8658495 C22.8665243,17.8220319 22.8073243,17.8339695 22.7713313,17.9016625 C22.7353383,17.9693554 22.6761382,17.981293 22.5937294,17.9374754 L22.4701167,17.8717494 C22.4085536,18.1863389 22.333963,18.2769226 22.2463427,18.1435033 C22.1587224,18.010084 22.0789205,18.0110673 22.0069345,18.1464532 C21.9349485,18.2818392 21.7445635,18.4410982 21.4357737,18.624235 C21.6005915,18.7118702 21.8013992,18.731812 22.0382029,18.6840612 L21.9302244,18.8871391 L21.9458586,19.1559431 C22.0386903,19.3789642 22.2499207,19.5781069 22.5795561,19.7533771 C22.4355841,20.0241491 22.2811916,20.1157161 22.1163739,20.028081 C21.9411333,19.7612423 21.7043332,19.8089925 21.4059663,20.1713328 C21.0356135,20.6690592 20.6136396,20.9656687 20.1400322,21.0611704 C19.6872705,21.5150792 19.4608931,21.7420302 19.4608931,21.7420302 C19.4504702,21.5628266 19.3628512,21.4294093 19.1980335,21.3417742 C19.094779,20.9395495 18.8991826,21.0092081 18.6112386,21.550752 C18.5392526,21.686138 18.5058658,21.7986301 18.5110773,21.8882319 C18.5162887,21.9778337 18.4829019,22.0903259 18.4109159,22.2257118 C18.1949579,22.6318698 17.9685805,22.8588207 17.7317768,22.9065716 C17.6493679,22.862754 17.5901679,22.8746916 17.5541749,22.9423845 C17.5181819,23.0100775 17.4589818,23.0220151 17.376573,22.9781975 C17.6342224,23.2888537 18.0770416,23.3506459 18.7050439,23.1635758 L18.7363123,23.7011837 C18.7154666,23.3427766 18.9006402,23.0939172 19.2918388,22.9545979 C19.3231073,23.4922086 19.0659488,23.8764519 18.5203553,24.1073396 C18.3763833,24.3781115 18.0728096,24.650846 17.6096251,24.9255513 L17.5783566,24.3879433 L17.2544213,24.9971772 L17.1464428,25.2002551 C16.9816251,25.11262 16.7448249,25.1603701 16.4360352,25.3435069 C16.2816404,25.4350754 16.0964667,25.6839348 15.8805087,26.0900927 C15.9013544,26.4484998 16.0197545,26.4246247 16.2357125,26.0184668 C16.4516705,25.6123089 16.5700706,25.5884338 16.5909163,25.9468409 C16.5189303,26.0822269 16.441734,26.1280104 16.3593252,26.0841928 C16.3081849,26.5779859 16.2054189,26.8706622 16.051024,26.9622306 C15.907052,27.2330026 15.8144652,27.3574323 15.7732608,27.3355235 C15.7320563,27.3136147 15.5982657,27.416136 15.3718849,27.6430904 C15.3718849,27.6430904 15.608685,27.5953402 16.0822924,27.4998386 C16.2471101,27.5874737 16.3347291,27.720891 16.345152,27.9000946 L16.2215393,27.8343685 L15.974314,27.7029165 C15.7479331,27.9298709 15.4031556,28.1806969 14.939971,28.4554022 L14.8163583,28.3896761 C14.7955126,28.0312691 14.7258899,27.8640057 14.607488,27.8878812 C14.4890862,27.9117566 14.383471,27.8121852 14.2906393,27.5891641 C14.2906393,27.5891641 14.0590505,27.7265147 13.5958659,28.0012199 C13.4310482,27.9135848 13.3460349,27.8249677 13.3408235,27.7353659 C13.3356121,27.6457641 13.2505988,27.557147 13.0857811,27.4695119 C13.2297531,27.1987399 13.360938,27.0514185 13.4793399,27.027543 C13.5977417,27.0036676 13.6105266,26.8802212 13.5176949,26.6572001 C13.5896809,26.5218141 13.6642715,26.4312304 13.7414689,26.3854462 C13.8186664,26.339662 13.8932569,26.2490782 13.9652429,26.1136923 C14.2124695,26.245145 14.2281036,26.5139462 14.0121456,26.9201042 C13.9401596,27.0554901 13.9453709,27.1450906 14.0277798,27.1889081 C14.1101886,27.2327257 14.1873849,27.1869422 14.2593709,27.0515562 C14.4857517,26.8246018 14.6195424,26.7220806 14.6607468,26.7439893 C14.7019512,26.7658981 14.7997494,26.7310688 14.9541443,26.6395004 L15.3860581,25.8271886 C15.6020161,25.4210307 15.9363709,24.9910038 16.3891326,24.5370951 C16.4715415,24.5809126 16.4947491,24.6366671 16.4587561,24.70436 C16.4227631,24.772053 16.4459706,24.8278075 16.5283795,24.871625 L16.7599706,24.7342731 C16.9247883,24.8219082 17.1151733,24.6626492 17.3311313,24.2564913 C17.3102856,23.8980842 17.1454704,23.8104504 16.8366807,23.9935872 C16.6822858,24.0851556 16.6050895,24.1309392 16.6050895,24.1309392 C16.5122578,23.9079181 16.4812332,23.717763 16.5120148,23.5604682 C16.5427964,23.4031735 16.5117718,23.2130184 16.4189401,22.9899973 C16.5733349,22.8984289 16.7225161,22.7172614 16.8664881,22.4464895 C16.8977567,22.9841001 17.0625719,23.0717339 17.3609388,22.7093935 C17.5873196,22.4824392 17.7185046,22.3351177 17.7544976,22.2674247 C17.7904906,22.1997317 17.9216755,22.0524102 18.1480564,21.8254558 C17.9832387,21.7378207 17.8776235,21.6382494 17.8312076,21.5267388 C17.7847918,21.4152283 17.7203804,21.3375654 17.6379715,21.2937478 C17.6995347,20.9791583 17.8435045,20.7083904 18.0698854,20.481436 C18.2962662,20.2544816 18.3990323,19.9618053 18.3781865,19.6033982 L19.304551,19.0539905 C19.0469016,18.7433343 18.68649,18.725359 18.2233055,19.0000643 C18.1304738,18.7770432 18.1174454,18.5530421 18.18422,18.3280544 C18.1927394,18.2993493 18.1993739,18.2717621 18.2041235,18.2452929 C18.1514345,18.2432751 18.0944922,18.2448261 18.0332965,18.249946 C17.9338336,18.2582673 17.8027397,18.3201609 17.6400125,18.4356281 C17.5896725,18.4936262 17.5368782,18.5503195 17.4816295,18.6057082 C17.4866409,18.6918702 17.4952101,18.7598506 17.5073372,18.8096499 C17.5579056,18.7927361 17.6287093,18.7460838 17.7197484,18.669693 C17.9802048,18.4511441 18.075036,18.4760028 18.0042449,18.7442697 C17.9174261,18.8171194 17.8483061,18.8229022 17.7968829,18.7616183 C17.7378704,18.8893395 17.6802159,18.9939602 17.6239191,19.0754809 C17.6293556,19.1136678 17.6335528,19.1581882 17.6365106,19.2090421 C17.5960159,19.2050206 17.5566479,19.2029224 17.5184067,19.2027473 C17.461849,19.2568541 17.4067492,19.2861513 17.3531072,19.2906392 C17.1794696,19.4363385 17.0797964,19.4938663 17.0540848,19.4632243 C17.0379563,19.4440032 16.9826083,19.4474184 16.8880396,19.4734704 C16.8603415,19.505617 16.8343205,19.5406265 16.8099765,19.5784988 C16.904682,19.6033245 17.0503299,19.6415041 17.2469211,19.6930377 C17.3497676,19.8156054 17.3834926,19.9439541 17.3480971,20.0780876 L17.2709626,19.9861622 L17.1166935,19.8023116 C16.9843657,19.8519448 16.8192557,19.8929839 16.6213615,19.9254293 L16.2782322,20.5707616 C16.3502182,20.4353756 16.383605,20.3228834 16.3783936,20.2332817 C16.3738965,20.1559625 16.398141,20.0615983 16.4511275,19.950187 Z M23.1351544,11.7732707 C23.1332716,11.8224678 23.1386344,11.8710587 23.1512429,11.9190436 C23.1748815,11.9472149 23.1563959,11.9996984 23.0957857,12.0764947 C23.0968755,11.9570968 23.1099983,11.8560223 23.1351544,11.7732707 Z M18.5907068,16.5652572 C18.6014961,16.744007 18.5781439,16.8820665 18.5206496,16.9794394 C18.4595424,17.0829309 18.437003,17.2323831 18.4530308,17.4278005 C18.4530308,17.4278005 18.5051235,17.4234422 18.6093104,17.4147256 C18.6093312,17.5774478 18.5370166,17.7017035 18.3923598,17.7874965 C18.2275421,17.6998613 18.2171194,17.5206605 18.3610914,17.2498885 C18.4330774,17.1145026 18.4844604,16.9681644 18.515242,16.8108696 C18.5290344,16.7403898 18.5541893,16.6585192 18.5907068,16.5652572 Z" id="Combined-Shape"></path>
                <g id="Group-4">
                    <path d="M26.2876486,25.9971124 C26.315933,26.0725375 26.282935,26.1573895 26.1886537,26.2516709 C25.7361031,26.0819644 25.5098311,25.9971124 25.5098311,25.9971124 C25.5192593,26.1951033 25.4744763,26.2917403 25.3754809,26.2870262 C25.2764854,26.2823122 25.2835564,26.4308031 25.3966941,26.7325035 L25.3259834,26.8032142 C24.8734328,26.6335077 24.5198829,26.4685178 24.2653232,26.3082394 L24.1239019,26.4496608 L24.0531912,26.5203715 C23.9966224,26.3695213 24.0154783,26.2469573 24.1097597,26.1526759 C24.5057415,26.1715322 24.7037294,26.1809602 24.7037294,26.1809602 C24.4491697,26.0206819 24.3101068,25.9523289 24.2865364,25.9758992 C24.2629661,25.9994696 24.1474731,25.9075466 23.9400541,25.7001276 C23.7892039,25.6435588 23.605358,25.4125729 23.3885108,25.007163 C23.3413701,25.0543036 23.2659461,25.0260197 23.1622366,24.9223101 C23.049099,24.6206097 23.1480929,24.6253237 23.4592215,24.9364523 C23.77035,25.2475808 23.869344,25.2522948 23.7562063,24.9505944 C23.4450778,24.6394659 23.2140919,24.4556199 23.0632417,24.3990511 C22.7615413,24.2859135 22.5635534,24.2764855 22.469272,24.3707668 L22.3137085,24.2152034 L21.847018,23.7485129 L22.0167237,24.2010612 C21.564173,24.0313547 21.2341932,23.8427948 21.0267742,23.6353758 C20.5270829,23.51281 20.192389,23.2252561 20.0226825,22.7727055 C20.3715236,22.8387025 20.6025095,23.0225484 20.7156472,23.3242488 L20.5459415,22.8717005 C21.0927735,22.9471256 21.4086114,22.8387036 21.4934646,22.5464314 C21.4463239,22.593572 21.396827,22.591215 21.3449722,22.5393603 C21.2931175,22.4875055 21.2436205,22.4851485 21.1964798,22.5322892 C20.9984889,22.5228611 20.743933,22.3625851 20.4328045,22.0514566 C20.3290949,21.9477471 20.263099,21.8581811 20.2348146,21.782756 C20.2065301,21.7073309 20.1405342,21.617765 20.0368247,21.5140555 C19.6219866,21.0992174 19.4475687,21.0662194 19.5135656,21.4150605 C19.4192843,21.5093419 19.4004283,21.6319058 19.4569971,21.782756 L18.6933218,21.3019234 C18.29734,21.2830671 17.8683662,21.0897932 17.4063874,20.7220959 C17.0481182,20.458108 16.8501303,20.44868 16.8124177,20.6938116 C16.7181364,20.788093 16.5672884,20.731525 16.3598694,20.524106 C16.5484322,20.3355432 16.6379981,20.1422693 16.62857,19.9442784 L16.5437172,19.7180042 L16.3881537,19.5624407 C16.5861446,19.5718689 16.7322785,19.5294429 16.8265599,19.4351615 C16.5248595,19.3220239 16.3221576,19.2136019 16.218448,19.1098924 C16.1147385,19.0061829 16.0534566,19.0156109 16.0346003,19.1381767 C16.015744,19.2607425 15.926178,19.1947465 15.7658997,18.9401868 L15.695189,19.0108974 C15.6480483,19.0580381 15.5985514,19.0556811 15.5466966,19.0038264 C15.4948418,18.9519716 15.4453449,18.9496146 15.3982042,18.9967553 C15.1907852,18.7893363 15.0587932,18.6102044 15.0022244,18.4593542 L15.1577879,18.6149177 L15.3133514,18.7704811 L15.8083261,18.2755064 C15.186069,17.6532493 14.9692251,17.2478455 15.1577879,17.0592827 C15.101219,16.9084325 14.9126591,16.5784527 14.5921024,16.0693332 C14.8938029,16.1824709 14.9668698,16.1612579 14.8113056,16.0056936 C14.6557413,15.8501294 14.5732463,15.6733544 14.5638182,15.4753635 C14.412968,15.4187947 14.28569,15.3386567 14.1819805,15.2349472 C14.078271,15.1312377 13.9509931,15.0510998 13.8001429,14.9945309 C13.7907147,14.79654 13.8095707,14.6739761 13.8567114,14.6268354 C13.7530019,14.5231259 13.6257239,14.4429879 13.4748737,14.3864191 C13.3711642,14.2827096 13.2957403,14.2544256 13.2485996,14.3015663 C13.1354619,13.9998659 13.00347,13.820734 12.8526198,13.7641651 C12.7017696,13.7075963 12.5226376,13.5756044 12.3152186,13.3681853 C12.2209372,13.4624667 12.2775052,13.6133146 12.4849242,13.8207337 C12.7960528,14.1318622 12.8573348,14.3817041 12.668772,14.5702669 C12.668772,14.5702669 12.4707841,14.5608389 12.0748023,14.5419826 C12.121943,14.4948419 12.093659,14.4194179 11.9899495,14.3157084 C11.8768118,14.014008 11.8956678,13.8914441 12.046518,13.9480129 C12.1973682,14.0045817 12.3199322,13.9857257 12.4142136,13.8914444 C12.2067945,13.6840253 12.0748026,13.5048934 12.0182338,13.3540432 C11.9050961,13.0523428 12.0040901,13.0570568 12.3152186,13.3681853 C12.2586498,13.2173351 12.1785118,13.0900572 12.0748023,12.9863477 C11.9710928,12.8826382 11.8815268,12.8166422 11.8061017,12.7883578 C11.7306766,12.7600734 11.5892567,12.6422234 11.3818377,12.4348044 C11.4384065,12.5856546 11.4431205,12.6846485 11.3959798,12.7317892 L11.1697056,12.6469364 C11.056568,12.345236 11,12.1943881 11,12.1943881 C11.2545597,12.3546664 11.4549046,12.4135914 11.6010408,12.3711648 C11.7471769,12.3287382 11.9710918,12.3640931 12.2727922,12.4772308 L12.4142136,12.3358094 C12.1596538,12.1755311 11.9828789,12.0930361 11.8838835,12.0883221 C11.784888,12.083608 11.6599671,12.052967 11.5091169,11.9963982 C11.4996887,11.7984073 11.5963257,11.7536243 11.7990307,11.8620479 C12.0017356,11.9704715 12.0983726,11.9256885 12.0889444,11.7276976 L12.0040916,11.5014234 C12.305792,11.6145611 12.5839179,11.751267 12.8384776,11.9115454 C12.5273491,11.6004168 12.3435032,11.3694309 12.2869343,11.2185807 L12.145513,11.3600021 L11.3676955,10.5821846 C11.2545579,10.2804842 11.2215599,10.1060663 11.2687006,10.0589256 C11.3158413,10.0117849 11.4384052,9.99292892 11.6363961,10.0023571 C11.9569528,10.5114765 12.1219427,10.8650263 12.1313708,11.0630172 L12.2869343,11.2185807 C12.334075,11.17144 12.395357,11.162012 12.4707821,11.1902964 C12.5462072,11.2185809 12.6074892,11.2091529 12.6546299,11.1620122 C12.8431926,10.9734494 12.8573346,10.7518915 12.6970563,10.4973318 C12.744197,10.4501911 12.8054789,10.4407631 12.880904,10.4690475 C12.9563291,10.4973319 13.0176111,10.4879039 13.0647518,10.4407633 L13.2061732,10.2993419 C13.4230203,10.7047518 13.5455843,10.9451657 13.5738687,11.0205908 C13.6021531,11.0960159 13.795427,11.2657199 14.1536962,11.5297077 L14.0122749,11.6711291 C13.7105745,11.5579914 13.5102296,11.4990664 13.4112341,11.4943524 C13.3122387,11.4896383 13.1354638,11.4071433 12.880904,11.246865 L12.7394827,11.3882863 C12.9940424,11.5485647 13.1731743,11.6805566 13.2768838,11.7842661 C13.3805933,11.8879757 13.5078713,11.9681136 13.6587215,12.0246824 L13.3758788,12.3075252 L13.5314423,12.4630887 C13.578583,12.415948 13.6280799,12.418305 13.6799347,12.4701597 C13.7317895,12.5220145 13.7812864,12.5243715 13.8284271,12.4772308 C13.9981336,12.9297814 14.2055495,13.1371973 14.4506811,13.0994848 C14.5543906,13.2031943 14.5496766,13.1042003 14.436539,12.8024999 C14.3611139,12.2556679 14.6580957,12.2698099 15.3274935,12.8449263 L15.0446508,13.127769 C14.9503694,13.2220504 15.0540774,13.3257584 15.3557778,13.438896 L15.1860721,12.9863477 C15.3934912,13.1937667 15.5254831,13.3728986 15.5820519,13.5237488 C15.789471,13.7311679 15.8696089,13.8584458 15.8224682,13.9055865 C16.3221595,14.0281523 16.6568534,14.3157062 16.8265599,14.7682568 C16.9396975,15.0699572 17.1518274,15.376367 17.462956,15.6874956 C17.6232343,15.9420553 17.7410843,16.0834752 17.8165094,16.1117596 C17.8919345,16.1400441 17.9343605,16.25318 17.9437886,16.4511709 C17.7929384,16.3946021 17.6656604,16.3144641 17.5619509,16.2107546 C17.2413943,15.7016352 17.0056943,15.4187953 16.8548441,15.3622265 C16.7039939,15.3056576 16.4211541,15.0699577 16.006316,14.6551197 C15.8648939,14.7965417 15.8978919,14.9709597 16.105311,15.1783787 C16.520149,15.5932167 16.7087089,15.9231966 16.6709964,16.1683282 C16.6238557,16.2154689 16.8077016,16.4464548 17.2225397,16.8612928 C17.5242401,16.9744305 17.778796,17.1347064 17.986215,17.3421254 C18.0899245,17.445835 18.1559205,17.5354009 18.1842049,17.610826 C18.2124893,17.6862511 18.3303393,17.8276711 18.5377583,18.0350901 C18.5943271,18.1859403 18.6980351,18.2896482 18.8488853,18.3462171 C18.9431666,18.2519357 18.8865987,18.1010878 18.6791796,17.8936687 C18.5754701,17.7899592 18.4835472,17.6744663 18.403408,17.5471864 C18.3232688,17.4199066 18.1794919,17.2525596 17.9720729,17.0451406 C17.8683633,16.9414311 17.8872193,16.8188671 18.0286414,16.6774451 C18.1794916,16.7340139 18.2690576,16.8000099 18.297342,16.875435 C18.3256264,16.9508601 18.4151924,17.016856 18.5660426,17.0734249 C19.1788715,17.4976911 19.4192854,17.8795249 19.2872915,18.2189379 C19.5889919,18.3320755 19.7398398,18.3886435 19.7398398,18.3886435 C20.1923904,18.55835 20.3715223,18.6903419 20.277241,18.7846233 C20.4375193,19.039183 20.5553693,19.1806029 20.6307944,19.2088873 C20.7062195,19.2371718 20.7957854,19.3031677 20.8994949,19.4068772 L21.0692006,19.8594256 C21.1729101,19.9631351 21.2389061,20.0527011 21.2671905,20.1281262 C21.2954749,20.2035513 21.3614708,20.2931172 21.4651804,20.3968267 L20.7651446,19.696791 C20.5058709,19.4375172 20.230102,19.3503083 19.9378297,19.4351615 C19.8812609,19.2843113 19.8647619,19.1971024 19.8883322,19.173532 C19.9119026,19.1499617 19.8954036,19.0627527 19.8388348,18.9119025 C19.5842751,18.7516242 19.3532891,18.5677782 19.1458701,18.3603592 C19.0515887,18.4546406 19.0704447,18.5913465 19.2024387,18.7704811 C19.3344326,18.9496158 19.4051426,19.1381757 19.4145707,19.3361666 C18.9620201,19.1664601 18.6933222,19.2277421 18.608469,19.5200143 L19.5135656,19.8594256 C19.6267033,20.161126 19.8105492,20.3921119 20.0651089,20.5523902 C20.3196686,20.7126686 20.5270846,20.9200845 20.6873629,21.1746442 C20.6402222,21.2217849 20.6190092,21.2948519 20.6237233,21.3938473 C20.6284374,21.4928427 20.5836544,21.5894797 20.489373,21.6837611 C20.7439327,21.8440394 20.8971377,21.9501044 20.9489924,22.0019591 C21.0008472,22.0538139 21.1540521,22.1598788 21.4086118,22.3201572 C21.766881,22.584145 21.861161,22.4898651 21.6914545,22.0373145 C21.8988736,22.2447335 22.0780055,22.3767254 22.2288557,22.4332943 C22.2382838,22.6312852 22.2830668,22.7939181 22.363206,22.9211979 C22.4433451,23.0484778 22.4881281,23.2111107 22.4975563,23.4091016 C22.4975563,23.4091016 22.4221323,23.3808176 22.2712821,23.3242488 C21.9695817,23.2111112 21.8753017,23.3053911 21.9884394,23.6070915 C22.2995679,23.9182201 22.5022698,24.026642 22.5965512,23.9323606 L22.8228254,24.0172135 C22.8699661,23.9700728 22.8676091,23.9205758 22.8157543,23.868721 C22.7638996,23.8168663 22.7615426,23.7673693 22.8086832,23.7202286 C23.3178027,24.0407853 23.7279205,24.3566232 24.039049,24.6677517 L24.661303,25.2900057 C24.8121532,25.3465745 24.8993622,25.3630735 24.9229325,25.3395031 C24.9465029,25.3159328 25.0855658,25.3842858 25.3401255,25.5445641 C25.443835,25.6482736 25.519259,25.6765576 25.5663997,25.6294169 C25.6135404,25.5822762 25.5852564,25.5068523 25.4815469,25.4031427 C25.1704183,25.0920142 25.0855664,24.8657423 25.2269884,24.7243202 C25.330698,24.8280298 25.4202639,24.8940257 25.495689,24.9223101 C25.5711141,24.9505946 25.6606801,25.0165905 25.7643896,25.1203 C25.7738177,25.3182909 25.8280287,25.4196419 25.9270242,25.424356 C26.0260196,25.42907 26.1792245,25.535135 26.3866436,25.742554 C26.2923622,25.8368354 26.2593642,25.9216873 26.2876486,25.9971124 Z" id="Path-Copy"></path>
                    <path d="M15.2876486,15.9971124 C15.315933,16.0725375 15.282935,16.1573895 15.1886537,16.2516709 C14.7361031,16.0819644 14.5098311,15.9971124 14.5098311,15.9971124 C14.5192593,16.1951033 14.4744763,16.2917403 14.3754809,16.2870262 C14.2764854,16.2823122 14.2835564,16.4308031 14.3966941,16.7325035 L14.3259834,16.8032142 C13.8734328,16.6335077 13.5198829,16.4685178 13.2653232,16.3082394 L13.1239019,16.4496608 L13.0531912,16.5203715 C12.9966224,16.3695213 13.0154783,16.2469573 13.1097597,16.1526759 C13.5057415,16.1715322 13.7037294,16.1809602 13.7037294,16.1809602 C13.4491697,16.0206819 13.3101068,15.9523289 13.2865364,15.9758992 C13.2629661,15.9994696 13.1474731,15.9075466 12.9400541,15.7001276 C12.7892039,15.6435588 12.605358,15.4125729 12.3885108,15.007163 C12.3413701,15.0543036 12.2659461,15.0260197 12.1622366,14.9223101 C12.049099,14.6206097 12.1480929,14.6253237 12.4592215,14.9364523 C12.77035,15.2475808 12.869344,15.2522948 12.7562063,14.9505944 C12.4450778,14.6394659 12.2140919,14.4556199 12.0632417,14.3990511 C11.7615413,14.2859135 11.5635534,14.2764855 11.469272,14.3707668 L11.3137085,14.2152034 L10.847018,13.7485129 L11.0167237,14.2010612 C10.564173,14.0313547 10.2341932,13.8427948 10.0267742,13.6353758 C9.52708287,13.51281 9.192389,13.2252561 9.02268253,12.7727055 C9.37152362,12.8387025 9.60250952,13.0225484 9.71564717,13.3242488 L9.54594155,12.8717005 C10.0927735,12.9471256 10.4086114,12.8387036 10.4934646,12.5464314 C10.4463239,12.593572 10.396827,12.591215 10.3449722,12.5393603 C10.2931175,12.4875055 10.2436205,12.4851485 10.1964798,12.5322892 C9.9984889,12.5228611 9.743933,12.3625851 9.43280446,12.0514566 C9.32909495,11.9477471 9.26309897,11.8581811 9.23481456,11.782756 C9.20653015,11.7073309 9.14053418,11.617765 9.03682466,11.5140555 C8.62198661,11.0992174 8.44756868,11.0662194 8.51356565,11.4150605 C8.41928427,11.5093419 8.40042828,11.6319058 8.4569971,11.782756 L7.69332178,11.3019234 C7.29734,11.2830671 6.86836618,11.0897932 6.40638744,10.7220959 C6.04811821,10.458108 5.85013029,10.44868 5.81241774,10.6938116 C5.71813637,10.788093 5.56728843,10.731525 5.3598694,10.524106 C5.54843215,10.3355432 5.63799812,10.1422693 5.62856998,9.9442784 L5.54371716,9.71800423 L5.38815367,9.56244074 C5.58614456,9.57186887 5.7322785,9.52944289 5.82655988,9.43516152 C5.52485948,9.32202387 5.32215756,9.21360191 5.21844805,9.1098924 C5.11473853,9.00618288 5.05345656,9.01561088 5.03460028,9.13817667 C5.01574401,9.26074246 4.92617804,9.19474648 4.76589971,8.94018677 L4.69518903,9.01089745 C4.64804834,9.05803814 4.59855136,9.05568114 4.5466966,9.00382638 C4.49484185,8.95197162 4.44534487,8.94961462 4.39820418,8.99675531 C4.19078515,8.78933629 4.05879321,8.61020436 4.00222438,8.45935416 L4.15778787,8.61491765 L4.31335137,8.77048114 L4.80832611,8.2755064 C4.18606903,7.65324932 3.96922512,7.24784548 4.15778787,7.05928273 C4.10121905,6.90843253 3.91265913,6.57845267 3.59210245,6.06933324 C3.89380285,6.18247089 3.96686982,6.1612579 3.81130555,6.00569363 C3.65574128,5.85012936 3.57324631,5.67335443 3.56381818,5.47536354 C3.41296798,5.41879472 3.28569003,5.33865675 3.18198052,5.23494724 C3.078271,5.13123772 2.95099305,5.05109976 2.80014285,4.99453093 C2.79071472,4.79654004 2.80957071,4.67397609 2.8567114,4.6268354 C2.75300188,4.52312589 2.62572394,4.44298792 2.47487373,4.3864191 C2.37116422,4.28270959 2.29574025,4.2544256 2.24859956,4.30156628 C2.13546191,3.99986588 2.00346997,3.82073396 1.85261977,3.76416513 C1.70176957,3.70759631 1.52263764,3.57560436 1.31521861,3.36818533 C1.22093724,3.46246671 1.27750521,3.61331465 1.48492424,3.82073367 C1.79605278,4.13186221 1.85733475,4.38170411 1.668772,4.57026686 C1.668772,4.57026686 1.47078408,4.56083887 1.07480231,4.54198259 C1.121943,4.4948419 1.09365901,4.41941793 0.989949494,4.31570842 C0.876811843,4.01400802 0.895667835,3.89144407 1.04651804,3.94801289 C1.19736824,4.00458172 1.31993219,3.98572573 1.41421356,3.89144435 C1.20679454,3.68402533 1.07480259,3.5048934 1.01823376,3.3540432 C0.905096114,3.0523428 1.00409007,3.05705679 1.31521861,3.36818533 C1.25864979,3.21733513 1.17851182,3.09005719 1.07480231,2.98634767 C0.971092794,2.88263816 0.881526831,2.81664219 0.806101731,2.78835777 C0.73067663,2.76007336 0.589256688,2.64222341 0.381837662,2.43480438 C0.438406487,2.58565458 0.443120485,2.68464854 0.395979797,2.73178923 L0.169705627,2.64693642 C0.0565679768,2.34523602 7.01216862e-13,2.19438808 7.01216862e-13,2.19438808 C0.254559714,2.35466642 0.454904632,2.41359139 0.601040764,2.37116477 C0.747176896,2.32873815 0.971091804,2.36409314 1.27279221,2.47723079 L1.41421356,2.33580943 C1.15965385,2.17553109 0.982878921,2.09303613 0.883883476,2.08832206 C0.784888032,2.08360799 0.659967083,2.052967 0.509116882,1.99639818 C0.499688745,1.79840729 0.596325705,1.75362431 0.799030663,1.86204789 C1.00173562,1.97047147 1.09837258,1.92568849 1.08894444,1.7276976 L1.00409163,1.50142343 C1.30579203,1.61456108 1.58391792,1.75126703 1.83847763,1.91154536 C1.52734909,1.60041683 1.34350317,1.36943092 1.28693434,1.21858072 L1.14551299,1.36000208 L0.367695526,0.582184616 C0.254557876,0.280484214 0.221559889,0.106066286 0.268700577,0.0589255978 C0.315841265,0.0117849101 0.438405214,-0.00707108222 0.636396103,0.00235705534 C0.95695278,0.511476483 1.12194271,0.865026338 1.13137085,1.06301723 L1.28693434,1.21858072 C1.33407503,1.17144003 1.395357,1.16201204 1.4707821,1.19029645 C1.54620721,1.21858086 1.60748918,1.20915286 1.65462987,1.16201218 C1.84319262,0.973449425 1.85733461,0.751891516 1.69705627,0.497331802 C1.74419696,0.450191114 1.80547894,0.440763118 1.88090404,0.469047531 C1.95632914,0.497331944 2.01761111,0.487903947 2.0647518,0.44076326 L2.20617316,0.299341903 C2.42302032,0.704751818 2.54558427,0.94516572 2.57386868,1.02059082 C2.6021531,1.09601592 2.79542702,1.26571985 3.15369624,1.5297077 L3.01227489,1.67112906 C2.71057449,1.55799141 2.51022957,1.49906643 2.41123412,1.49435236 C2.31223868,1.48963829 2.13546375,1.40714333 1.88090404,1.24686499 L1.73948268,1.38828635 C1.9940424,1.54856468 2.17317432,1.68055663 2.27688384,1.78426614 C2.38059335,1.88797566 2.5078713,1.96811362 2.6587215,2.02468245 L2.37587878,2.30752516 L2.53144228,2.46308865 C2.57858296,2.41594797 2.62807994,2.41830497 2.6799347,2.47015972 C2.73178946,2.52201448 2.78128644,2.52437148 2.82842712,2.47723079 C2.9981336,2.92978139 3.20554952,3.13719731 3.45068109,3.09948476 C3.55439061,3.20319427 3.54967661,3.10420031 3.43653896,2.80249991 C3.36111386,2.25566793 3.65809573,2.26980992 4.3274935,2.84492632 L4.04465079,3.12776903 C3.95036941,3.2220504 4.05407737,3.32575836 4.35577777,3.43889601 L4.18607214,2.98634767 C4.39349117,3.1937667 4.52548312,3.37289862 4.58205194,3.52374883 C4.78947097,3.73116785 4.86960894,3.8584458 4.82246825,3.90558649 C5.32215954,4.02815228 5.6568534,4.31570616 5.82655988,4.76825676 C5.93969753,5.06995716 6.15182744,5.37636704 6.46295598,5.68749558 C6.62323432,5.94205529 6.74108427,6.08347523 6.81650937,6.11175964 C6.89193447,6.14004406 6.93436045,6.25318001 6.94378859,6.4511709 C6.79293839,6.39460207 6.66566044,6.31446411 6.56195093,6.21075459 C6.24139425,5.70163517 6.00569435,5.41879528 5.85484415,5.36222646 C5.70399395,5.30565763 5.42115406,5.06995773 5.00631601,4.65511968 C4.86489395,4.79654174 4.89789193,4.97095967 5.10531096,5.17837869 C5.52014901,5.59321675 5.70870894,5.92319661 5.67099639,6.16832819 C5.6238557,6.21546888 5.80770162,6.44645478 6.22253967,6.86129283 C6.52424008,6.97443048 6.77879597,7.13470642 6.986215,7.34212544 C7.08992451,7.44583496 7.15592048,7.53540092 7.1842049,7.61082602 C7.21248931,7.68625112 7.33033926,7.82767106 7.53775829,8.03509009 C7.59432711,8.18594029 7.69803507,8.28964825 7.84888527,8.34621707 C7.94316665,8.2519357 7.88659867,8.10108776 7.67917964,7.89366873 C7.57547013,7.78995922 7.48354717,7.67446627 7.403408,7.54718641 C7.32326883,7.41990655 7.17949189,7.25255962 6.97207286,7.0451406 C6.86836335,6.94143108 6.88721934,6.81886713 7.0286414,6.67744507 C7.17949161,6.7340139 7.26905757,6.80000987 7.29734198,6.87543497 C7.32562639,6.95086007 7.41519236,7.01685604 7.56604256,7.07342487 C8.1788715,7.49769106 8.4192854,7.8795249 8.28729148,8.21893785 C8.58899188,8.3320755 8.73983982,8.38864348 8.73983982,8.38864348 C9.19239042,8.55834996 9.37152234,8.6903419 9.27724097,8.78462328 C9.43751931,9.03918299 9.55536926,9.18060293 9.63079436,9.20888735 C9.70621946,9.23717176 9.79578542,9.30316773 9.89949494,9.40687725 L10.0692006,9.85942559 C10.1729101,9.9631351 10.2389061,10.0527011 10.2671905,10.1281262 C10.2954749,10.2035513 10.3614708,10.2931172 10.4651804,10.3968267 L9.76514465,9.69679103 C9.50587087,9.43751724 9.23010198,9.35030828 8.93782971,9.43516152 C8.88126089,9.28431132 8.8647619,9.19710235 8.88833224,9.17353201 C8.91190258,9.14996166 8.89540359,9.0627527 8.83883476,8.9119025 C8.58427505,8.75162416 8.35328915,8.56777824 8.14587012,8.36035921 C8.05158874,8.45464058 8.07044474,8.59134653 8.20243866,8.77048114 C8.33443259,8.94961576 8.40514256,9.13817568 8.4145707,9.33616657 C7.96202009,9.16646009 7.6933222,9.22774207 7.60846897,9.52001433 L8.51356565,9.85942559 C8.6267033,10.161126 8.81054922,10.3921119 9.06510893,10.5523902 C9.31966865,10.7126686 9.52708456,10.9200845 9.6873629,11.1746442 C9.64022221,11.2217849 9.61900922,11.2948519 9.62372329,11.3938473 C9.62843736,11.4928427 9.58365438,11.5894797 9.489373,11.6837611 C9.74393272,11.8440394 9.89713765,11.9501044 9.94899241,12.0019591 C10.0008472,12.0538139 10.1540521,12.1598788 10.4086118,12.3201572 C10.766881,12.584145 10.861161,12.4898651 10.6914545,12.0373145 C10.8988736,12.2447335 11.0780055,12.3767254 11.2288557,12.4332943 C11.2382838,12.6312852 11.2830668,12.7939181 11.363206,12.9211979 C11.4433451,13.0484778 11.4881281,13.2111107 11.4975563,13.4091016 C11.4975563,13.4091016 11.4221323,13.3808176 11.2712821,13.3242488 C10.9695817,13.2111112 10.8753017,13.3053911 10.9884394,13.6070915 C11.2995679,13.9182201 11.5022698,14.026642 11.5965512,13.9323606 L11.8228254,14.0172135 C11.8699661,13.9700728 11.8676091,13.9205758 11.8157543,13.868721 C11.7638996,13.8168663 11.7615426,13.7673693 11.8086832,13.7202286 C12.3178027,14.0407853 12.7279205,14.3566232 13.039049,14.6677517 L13.661303,15.2900057 C13.8121532,15.3465745 13.8993622,15.3630735 13.9229325,15.3395031 C13.9465029,15.3159328 14.0855658,15.3842858 14.3401255,15.5445641 C14.443835,15.6482736 14.519259,15.6765576 14.5663997,15.6294169 C14.6135404,15.5822762 14.5852564,15.5068523 14.4815469,15.4031427 C14.1704183,15.0920142 14.0855664,14.8657423 14.2269884,14.7243202 C14.330698,14.8280298 14.4202639,14.8940257 14.495689,14.9223101 C14.5711141,14.9505946 14.6606801,15.0165905 14.7643896,15.1203 C14.7738177,15.3182909 14.8280287,15.4196419 14.9270242,15.424356 C15.0260196,15.42907 15.1792245,15.535135 15.3866436,15.742554 C15.2923622,15.8368354 15.2593642,15.9216873 15.2876486,15.9971124 Z" id="Path-Copy-2" transform="translate(7.693322, 8.401607) scale(-1, -1) translate(-7.693322, -8.401607) "></path>
                </g>
            </g>
        </g>
    </g>
</svg>
