<?xml version="1.0" encoding="UTF-8" standalone="no"?>
<svg width="22px" height="33px" viewBox="0 0 22 33" version="1.1" xmlns="http://www.w3.org/2000/svg" xmlns:xlink="http://www.w3.org/1999/xlink">
    <!-- Generator: Sketch 39.1 (31720) - http://www.bohemiancoding.com/sketch -->
    <title>Combined Shape</title>
    <desc>Created with Sketch.</desc>
    <defs></defs>
    <g id="Page-1" stroke="none" stroke-width="1" fill="none" fill-rule="evenodd">
        <g id="Desktop-Copy-9" transform="translate(-422.000000, -435.000000)" fill="#E61717">
            <g id="Group-5" transform="translate(416.000000, 426.000000)">
                <g id="bvlix" transform="translate(26.500000, 21.000000) scale(-1, 1) translate(-26.500000, -21.000000) translate(6.000000, 0.000000)">
                    <g id="Group-4">
                        <path d="M23.9339484,28.742962 C23.7951414,28.7616926 23.6469681,28.7780146 23.4894285,28.7919278 L23.377613,28.6586713 C23.4827167,28.2677029 23.4662229,28.0544643 23.3281309,28.0189492 C23.1900389,27.9834342 23.109998,27.8235179 23.0880059,27.5391955 C23.0880059,27.5391955 22.7855505,27.5659072 22.1806308,27.6193312 C22.0315427,27.441655 21.9701376,27.3039478 21.9964135,27.2062057 C22.0226894,27.1084636 21.9612843,26.9707565 21.8121962,26.7930803 C22.066388,26.579788 22.262527,26.4909008 22.400619,26.5264158 C22.5387109,26.5619309 22.59676,26.4375291 22.5747678,26.1532068 C22.7018637,26.0465606 22.8158199,25.9887864 22.9166399,25.9798824 C23.0174599,25.9709784 23.1314161,25.9132042 23.258512,25.8065581 C23.4821441,26.0730725 23.4033174,26.3662944 23.0220297,26.6862328 C22.8949338,26.7928789 22.8686583,26.8906195 22.9432023,26.9794577 C23.0177464,27.0682958 23.1185648,27.0593919 23.2456607,26.9527458 C23.5743965,26.8282917 23.7573977,26.7882747 23.7946697,26.8326938 C23.8319417,26.8771128 23.9513959,26.8904182 24.1530358,26.8726101 L24.4993036,26.582057 C24.4241317,26.4379248 24.6687617,26.1968192 25.2331976,25.8587353 C25.2331976,25.8587353 25.4580373,25.7240616 25.9077235,25.4547101 C25.4157991,24.9389224 25.5527506,24.2490715 26.3185823,23.3851367 C26.5434254,23.250461 26.6523255,23.1176969 26.6452858,22.9868403 C26.6382461,22.8559838 26.7471461,22.7232196 26.9719892,22.5885439 C27.330373,22.7790999 27.4568721,22.9734722 27.3514902,23.1716666 C27.2353041,23.3901809 27.1442066,23.5834048 27.0781971,23.7513398 C27.2543689,23.730425 27.4502614,23.6361445 27.6658792,23.4684962 C27.8747836,23.1550116 28.1669787,22.8858169 28.5424701,22.6609064 C28.9639974,21.8681287 29.1150282,21.439987 28.9955669,21.3764683 C28.8117849,21.0940777 28.805965,20.7050962 28.9781084,20.209517 C28.8541457,20.239805 28.7367291,20.3014648 28.6258583,20.3944965 L27.7679652,21.1143542 C27.8950611,21.0077081 27.9717459,20.9055155 27.9980218,20.8077734 C28.0242978,20.7100313 28.1009825,20.6078387 28.2280784,20.5011926 L28.3857333,19.9147428 C28.5128292,19.8080967 28.6267854,19.7503225 28.7276053,19.7414185 C28.8284253,19.7325145 28.9686571,19.5769996 29.1483048,19.2748693 C29.0530308,19.1613261 29.1117158,19.0731547 29.3243616,19.010354 C29.2731375,18.8974962 29.1739919,18.8019692 29.0269248,18.7237722 C28.6053974,19.5165498 28.2822171,19.9802696 28.057374,20.1149453 C27.8325309,20.249621 27.62881,20.7768585 27.4462051,21.6966735 C27.3408233,21.8948679 27.1757133,22.0613005 26.9508702,22.1959762 C26.8173295,21.8707445 26.8067701,21.6744626 26.9191917,21.6071247 C27.0316132,21.5397868 27.1334737,21.2761681 27.2247761,20.8162606 C27.5409216,20.2216774 27.6849128,19.6626811 27.656754,19.1392549 C27.6145157,18.3541156 27.9903862,17.7913002 28.7843768,17.4507916 C28.6649155,17.387273 28.710566,17.1573227 28.9213297,16.7609338 C28.9072503,16.4992207 29.0055909,16.1701747 29.2163546,15.7737859 L29.2585927,16.5589212 C29.7082788,16.2895698 29.8136591,16.0913783 29.5747366,15.964341 L28.8579726,15.5832308 C29.6097249,14.457583 30.1261737,14.350849 30.4073345,15.2630257 C30.4354933,15.7864518 30.5022626,15.9490653 30.6076445,15.7508709 C31.0714101,15.7432325 31.2821706,15.3468496 31.2399323,14.5617103 C31.3593936,14.625229 31.4454684,14.60744 31.4981593,14.5083428 C31.5508502,14.4092456 31.636925,14.3914566 31.7563863,14.4549753 L31.9144582,14.1576851 L31.1976943,13.776575 C31.4225374,13.6418993 31.5876474,13.4754667 31.6930292,13.2772723 C31.7984111,13.0790779 32.0162112,12.8135496 32.3464361,12.4806794 L31.9880541,12.2901243 C31.6578292,12.6229945 31.4066444,12.8072161 31.2344922,12.8427946 C31.0623401,12.8783731 30.7514255,13.0308358 30.3017394,13.3001873 L29.9433574,13.1096322 C30.3789642,12.5785677 30.5932445,12.2476121 30.5862048,12.1167555 C30.5791651,11.985899 30.6142562,11.5596668 30.6914792,10.8380462 L31.0498612,11.0286013 C31.1693224,11.09212 31.2852621,11.0902104 31.3976836,11.0228725 C31.5101052,10.9555347 31.6260448,10.9536251 31.7455061,11.0171438 C31.6542037,11.4770513 31.8474721,11.834037 32.3253171,12.0881117 C32.4447783,12.1516304 32.560718,12.1497209 32.6731395,12.082383 C32.7855611,12.0150451 32.9015008,12.0131355 33.020962,12.0766542 L33.179034,11.7793641 C33.0454933,11.4541323 33.070025,10.8316183 33.2526299,9.91180328 C33.5969342,9.84064622 33.8288135,9.83682709 33.9482748,9.90034576 C34.067736,9.96386444 34.141545,10.2573325 34.1697038,10.7807586 L33.379344,12.2672093 L33.020962,12.0766542 C33.0350414,12.3383673 32.8840106,12.7665091 32.5678651,13.3610923 C32.8980901,13.0282221 33.2880398,12.7271158 33.737726,12.4577644 L33.758845,12.850332 C33.8923856,13.1755638 34.0979199,13.2212925 34.3754539,12.9875196 C34.6529879,12.7537466 34.8585222,12.7994754 34.9920629,13.1247071 C34.7672198,13.2593829 34.5687251,13.3445087 34.3965729,13.3800873 C34.2244208,13.4156658 33.973236,13.5998874 33.6430111,13.9327575 L34.001393,14.1233126 C34.2114725,13.9974799 34.4043013,13.9040891 34.5798806,13.8431398 C34.6290174,13.7790911 34.7029289,13.7056629 34.8016155,13.6228551 C34.8541673,13.4273709 35.0075369,13.2229857 35.2617286,13.0096934 L35.1040738,13.5961432 C35.5073537,13.5605272 35.6344477,13.4538827 35.4853596,13.2762065 L35.0380977,12.7431804 C35.8752171,12.1921418 36.2894868,12.2986854 36.2809193,13.0628143 C36.1758155,13.4537828 36.1868114,13.5959418 36.3139073,13.4892957 C36.6646353,13.6491639 36.9188233,13.4358749 37.0764789,12.8494222 C37.1510229,12.9382603 37.2200679,12.9560176 37.2836158,12.9026945 C37.3471638,12.8493714 37.4162087,12.8671287 37.4907528,12.9559668 L37.6813956,12.7959984 L37.2341337,12.2629724 C37.4357736,12.2451644 37.6001391,12.1829383 37.727235,12.0762922 C37.8543309,11.969646 38.0822433,11.8540976 38.4109791,11.7296435 L38.1873482,11.4631305 C37.8586124,11.5875846 37.625202,11.6320535 37.48711,11.5965385 C37.349018,11.5610234 37.0783362,11.5610739 36.6750563,11.5966899 L36.4514253,11.3301769 C36.9072571,11.0990766 37.1483073,10.9346579 37.1745832,10.8369158 C37.2008591,10.7391737 37.330095,10.4414998 37.5622946,9.94388522 L37.7859256,10.2103982 C37.8604696,10.2992363 37.9481503,10.3392028 38.0489703,10.3302988 C38.1497902,10.3213948 38.2374709,10.3613612 38.3120149,10.4501994 C38.1323672,10.7523297 38.1916304,11.0810662 38.4898066,11.4364186 C38.5643506,11.5252567 38.6520313,11.5652232 38.7528512,11.5563192 C38.8536712,11.5474152 38.9413519,11.5873816 39.0158959,11.6762198 L39.2065388,11.5162514 C39.1845466,11.231929 39.3531958,10.7876442 39.7124913,10.1833835 C39.9886753,10.2544136 40.1640366,10.3343465 40.2385807,10.4231846 C40.3131247,10.5120227 40.2978451,10.7519224 40.1927413,11.1428909 L39.2395269,11.9427328 L39.0158959,11.6762198 C38.963344,11.871704 38.7464275,12.1294114 38.3651398,12.4493498 C38.6938756,12.3248957 39.059878,12.2448618 39.4631578,12.2092458 L39.3843304,12.5024707 C39.4063226,12.786793 39.5499104,12.893387 39.8150983,12.822256 C40.0802862,12.7511249 40.223874,12.8577189 40.2458662,13.1420413 C40.0442263,13.1598493 39.8743629,13.1509959 39.7362709,13.1154809 C39.5981789,13.0799658 39.3647685,13.1244347 39.0360327,13.2488888 L39.2596637,13.5154018 C39.6629435,13.4797858 39.9708968,13.5241537 40.1835328,13.6485069 C40.3961688,13.77286 40.6668507,13.7728095 40.9955865,13.6483554 C40.9955865,13.6483554 40.9430354,13.8438367 40.8379317,14.2348052 L40.5354733,14.2615171 C40.4609293,14.172679 40.4499334,14.0305199 40.5024852,13.8350357 C40.2482934,14.0483279 40.0707902,14.1594244 39.9699703,14.1683284 C39.8691503,14.1772324 39.7551941,14.2350066 39.6280982,14.3416527 C39.5010023,14.4482988 39.4111797,14.5993617 39.3586279,14.794846 C39.7399156,14.4749076 39.8780055,14.5104221 39.7729017,14.9013906 C39.7203499,15.0968748 39.5669803,15.30126 39.3127885,15.5145522 C39.4618766,15.6922285 39.637238,15.7721614 39.8388779,15.7543534 C40.0405178,15.7365454 40.0887852,15.9231228 39.9836814,16.3140912 C39.8565855,16.4207374 39.83031,16.518478 39.904854,16.6073161 C39.3524861,16.4652559 39.0763063,16.3942269 39.0763063,16.3942269 C38.7781302,16.0388744 38.8196854,15.7012341 39.2009731,15.3812957 C39.4551649,15.1680035 39.5077159,14.9725222 39.3586279,14.794846 C39.1044361,15.0081382 38.8765236,15.1236866 38.6748837,15.1414946 C38.4732438,15.1593026 38.3198743,15.3636878 38.2147705,15.7546562 C38.1402265,15.6658181 38.039408,15.674722 37.9123122,15.7813681 C37.7106722,15.7991761 37.5463068,15.8614023 37.4192109,15.9680484 C37.4937549,16.0568865 37.5420223,16.2434639 37.5640144,16.5277863 C37.3623745,16.5455943 37.1980091,16.6078204 37.0709132,16.7144665 C36.9438173,16.8211127 36.7794518,16.8833388 36.5778119,16.9011468 C36.5998041,17.1854691 36.5154795,17.4076116 36.3248356,17.5675807 C36.1341918,17.7275499 36.2405082,17.7897256 36.643788,17.7541096 C36.2844925,18.3583703 36.0785719,18.7582367 36.02602,18.953721 C36.3241961,19.3090734 36.092,19.8066805 35.3294246,20.4465573 L36.112133,21.3793528 L36.3027759,21.2193844 L36.4934188,21.059416 C36.4408669,21.2549003 36.2874974,21.4592854 36.0333056,21.6725777 C35.9587615,21.5837396 35.8897166,21.5659823 35.8261686,21.6193054 C35.7626207,21.6726284 35.6935757,21.6548712 35.6190317,21.566033 L35.5072162,21.4327765 C35.3275685,21.7349069 35.2136122,21.7926811 35.1653442,21.6061009 C35.1170761,21.4195206 35.0293954,21.3795542 34.9022995,21.4862003 C34.7752036,21.5928464 34.5100197,21.6639764 34.1067398,21.6995924 C34.2558279,21.8772687 34.4684607,22.00162 34.7446447,22.0726501 L34.5540018,22.2326184 L34.4751744,22.5258433 C34.4971665,22.8101657 34.6572483,23.1299983 34.9554244,23.4853507 C34.7012326,23.698643 34.4995957,23.7164507 34.3505076,23.5387745 C34.2539714,23.165614 33.9777916,23.094585 33.5219599,23.3256852 C33.1859815,23.52035 32.8550818,23.6353196 32.5292575,23.6705945 C32.4392312,23.9319032 32.3049087,24.2305239 32.1262898,24.5664571 L33.3806267,25.2333999 L33.5386987,24.9361098 L33.6967706,24.6388196 C33.7108501,24.9005327 33.6125094,25.2295788 33.4017457,25.6259676 C33.2822845,25.5624489 33.1962097,25.5802379 33.1435188,25.6793351 C33.0908278,25.7784323 33.004753,25.7962213 32.8852918,25.7327026 L32.7061008,25.6374251 C32.6147984,26.0973326 32.5058983,26.2300967 32.3793974,26.0357215 C32.2528964,25.8413463 32.1369567,25.8432559 32.0315749,26.0414503 C31.9261931,26.2396447 31.6486632,26.4734141 31.198977,26.7427656 C31.4378995,26.869803 31.7295086,26.8977427 32.0738129,26.8265856 L31.915741,27.1238758 L31.93686,27.5164434 C32.0704007,27.8416752 32.3760889,28.1313241 32.8539339,28.3853988 C32.6431703,28.7817876 32.4183305,28.9164613 32.179408,28.789424 C31.9264061,28.4006735 31.5821069,28.4718295 31.1465002,29.0028941 C30.6055115,29.7321531 29.9907221,30.1679331 29.3021134,30.3102472 C28.6416636,30.9759875 28.3114436,31.3088526 28.3114436,31.3088526 C28.2973642,31.0471395 28.1708651,30.8527672 27.9319426,30.7257299 C27.7843225,30.138785 27.499753,30.2416999 27.0782257,31.0344775 C26.9728439,31.2326719 26.9236735,31.397195 26.9307132,31.5280515 C26.9377529,31.658908 26.8885826,31.8234311 26.7832008,32.0216255 C26.4670553,32.6162087 26.1368353,32.9490739 25.7925309,33.0202309 C25.6730697,32.9567122 25.5869949,32.9745012 25.534304,33.0735984 C25.481613,33.1726957 25.3955383,33.1904847 25.276077,33.126966 C25.6485402,33.5792351 26.291488,33.6668734 27.2049398,33.3898836 L27.2471779,34.1750189 C27.219019,33.6515927 27.4895093,33.2869687 28.0586567,33.0811359 C28.100895,33.8662752 27.7250245,34.4290906 26.9310339,34.7695992 C26.7202702,35.165988 26.2776304,35.56619 25.6031011,35.9702172 L25.5608631,35.1850819 L25.0866472,36.0769523 L24.9285752,36.3742424 C24.6896527,36.247205 24.3453535,36.318361 23.8956673,36.5877125 C23.6708242,36.7223882 23.400334,37.0870123 23.0841885,37.6815955 C23.1123473,38.2050217 23.2844969,38.1694437 23.6006424,37.5748604 C23.9167879,36.9802772 24.0889375,36.9446992 24.1170964,37.4681254 C24.0117145,37.6663198 23.8992947,37.7336566 23.7798334,37.670138 C23.7026104,38.3917586 23.5515796,38.8199003 23.3267365,38.954576 C23.1159728,39.3509649 22.9807277,39.5332769 22.9209971,39.5015175 C22.8612665,39.4697582 22.6662916,39.6203113 22.3360667,39.9531815 C22.3360667,39.9531815 22.6803659,39.8820255 23.3689746,39.7397114 C23.6078971,39.8667487 23.7343961,40.061121 23.7484756,40.3228341 L23.5692846,40.2275566 L23.2109026,40.0370015 C22.8806777,40.3698717 22.3783081,40.7383148 21.7037788,41.142342 L21.5245878,41.0470645 C21.496429,40.5236383 21.396275,40.2797181 21.2241228,40.3152967 C21.0519706,40.3508752 20.8991265,40.2060507 20.7655858,39.880819 C20.7655858,39.880819 20.4283263,40.0828296 19.753797,40.4868568 C19.5148745,40.3598194 19.3918952,40.2308744 19.3848555,40.1000179 C19.3778158,39.9691613 19.2548365,39.8402163 19.015914,39.7131789 C19.2266777,39.3167901 19.4181327,39.1008097 19.5902849,39.0652312 C19.7624371,39.0296526 19.7817426,38.8492502 19.6482019,38.5240184 C19.7535837,38.325824 19.8624838,38.1930599 19.9749053,38.125722 C20.0873269,38.0583841 20.1962269,37.92562 20.3016088,37.7274256 C20.6599925,37.9179816 20.6811113,38.3105453 20.3649658,38.9051286 C20.259584,39.103323 20.2666236,39.2341776 20.3860848,39.2976962 C20.5055461,39.3612149 20.617966,39.2938781 20.7233478,39.0956836 C21.0535727,38.7628135 21.2485476,38.6122604 21.3082782,38.6440197 C21.3680088,38.675779 21.5102936,38.6243216 21.7351367,38.4896459 L22.3674245,37.3004853 C22.68357,36.7059021 23.1718604,36.0757498 23.8323103,35.4100095 C23.9517715,35.4735282 23.9851562,35.5548349 23.9324653,35.6539321 C23.8797744,35.7530293 23.913159,35.834336 24.0326203,35.8978547 L24.3698832,35.6958421 C24.6088057,35.8228795 24.8863356,35.58911 25.2024811,34.9945268 C25.1743223,34.4711006 24.9354033,34.3440652 24.4857172,34.6134166 C24.2608741,34.7480924 24.1484542,34.8154292 24.1484542,34.8154292 C24.0149135,34.4901975 23.9709695,34.2126089 24.0166207,33.9826551 C24.0622719,33.7527014 24.0183278,33.4751128 23.8847871,33.149881 C24.1096302,33.0152053 24.3274304,32.749677 24.538194,32.3532882 C24.5804323,33.1384274 24.8193512,33.2654629 25.254958,32.7343983 C25.5851829,32.4015282 25.776638,32.1855477 25.8293289,32.0864505 C25.8820198,31.9873533 26.0734749,31.7713729 26.4036998,31.4385027 C26.1647773,31.3114654 26.0119331,31.1666409 25.9451628,31.004025 C25.8783925,30.8414092 25.7852781,30.7283436 25.6658168,30.6648249 C25.7571192,30.2049174 25.9678798,29.8085345 26.2981047,29.4756644 C26.6283296,29.1427942 26.7793604,28.7146525 26.7512016,28.1912263 L28.1002534,27.3831759 C27.7277902,26.9309068 27.2043018,26.9067862 26.5297725,27.3108134 C26.3962319,26.9855817 26.3786329,26.6584452 26.476975,26.3293943 C26.4849241,26.3027966 26.4917715,26.2768589 26.497517,26.2515812 C26.4176102,26.2483577 26.3308567,26.2508792 26.2372564,26.2591456 C26.0843574,26.272649 25.8798136,26.3730111 25.6236212,26.5602341 C25.5691442,26.620858 25.5128127,26.680496 25.4546266,26.7391482 C25.4623131,26.882028 25.4768027,26.9906381 25.4980954,27.0649793 C25.568901,27.0332177 25.6619169,26.9689936 25.7771432,26.8723073 C26.1584309,26.5523689 26.2965208,26.5878834 26.191417,26.9788519 C26.0643211,27.085498 25.9635027,27.0944019 25.8889587,27.0055638 C25.8105538,27.1735891 25.7338914,27.3142613 25.6589713,27.4275807 C25.666438,27.4826483 25.6721328,27.5466417 25.6760556,27.6195611 C25.621875,27.6143699 25.5690742,27.6115579 25.5176533,27.611125 C25.4214525,27.7148805 25.3283025,27.7707365 25.2382026,27.7786938 C24.9840108,27.991986 24.8382811,28.0764214 24.8010091,28.0320023 C24.7774174,28.0038868 24.695441,28.0095996 24.5550785,28.049141 C24.5175346,28.0965043 24.4822181,28.1477082 24.4491289,28.2027527 C24.5871372,28.2382462 24.7976098,28.2923764 25.0805478,28.3651436 C25.2296358,28.5428198 25.2779032,28.7293972 25.2253513,28.9248814 L25.1135358,28.7916249 L24.8899049,28.5251119 C24.6993691,28.5972457 24.4624454,28.6574482 24.1791309,28.7057199 L23.694716,29.616772 C23.8000978,29.4185776 23.8492681,29.2540546 23.8422284,29.123198 C23.8365771,29.0181498 23.8671502,28.8914053 23.9339484,28.742962 Z M33.7528203,16.6095425 C33.7133028,16.7456869 33.7103198,16.878605 33.7438711,17.0082972 C33.7796667,17.0509568 33.7482553,17.1325556 33.6496359,17.2530945 C33.6448076,16.9783078 33.6792022,16.7637911 33.7528203,16.6095425 Z M33.5662023,17.3474769 C33.4559755,17.4646235 33.2982799,17.6092734 33.093115,17.7814272 C33.0737267,17.7831395 33.0545107,17.7850571 33.035467,17.7871801 C33.1155761,17.7084169 33.2092963,17.6368909 33.3166283,17.5726016 C33.3958424,17.4236215 33.4790333,17.3485802 33.5662023,17.3474769 Z M27.0613695,23.7950445 C27.0770219,24.0590548 27.0421562,24.2628568 26.9567715,24.4064562 C26.8669476,24.5575214 26.8330322,24.7752119 26.8550244,25.0595342 C26.8550244,25.0595342 26.9361662,25.0523681 27.0984519,25.0380357 C27.0849228,25.2536618 26.979626,25.4204919 26.7825594,25.5385302 C26.5436369,25.4114928 26.5295577,25.1497837 26.7403214,24.7533948 C26.8457032,24.5552004 26.9212186,24.3411295 26.9668698,24.1111758 C26.9851428,24.0191312 27.0166426,23.9137543 27.0613695,23.7950445 Z" id="Combined-Shape"></path>
                    </g>
                </g>
            </g>
        </g>
    </g>
</svg>
