<?xml version="1.0" encoding="UTF-8" standalone="no"?>
<svg width="39px" height="39px" viewBox="0 0 39 39" version="1.1" xmlns="http://www.w3.org/2000/svg" xmlns:xlink="http://www.w3.org/1999/xlink">
    <!-- Generator: Sketch 39.1 (31720) - http://www.bohemiancoding.com/sketch -->
    <title>Combined Shape</title>
    <desc>Created with Sketch.</desc>
    <defs></defs>
    <g id="Page-1" stroke="none" stroke-width="1" fill="none" fill-rule="evenodd">
        <g id="Desktop-Copy-9" transform="translate(-424.000000, -426.000000)" fill="#E61717">
            <g id="Group-5" transform="translate(416.000000, 426.000000)">
                <g id="bvlix" transform="translate(26.500000, 21.000000) scale(-1, 1) translate(-26.500000, -21.000000) translate(6.000000, 0.000000)">
                    <g id="Group-4">
                        <path d="M21.7012521,24.2486958 C21.7970193,24.4220366 21.8614626,24.5528664 21.8945825,24.6411862 C21.6222141,24.9135546 21.935433,25.4991379 22.8342488,26.3979537 L22.1192853,27.1129172 L21.8945825,26.8882144 L21.6698797,26.6635116 C21.7515902,26.8814063 21.9422452,27.1401524 22.2418505,27.4397577 C22.3099426,27.3716656 22.3814382,27.3750701 22.4563395,27.4499714 C22.5312409,27.5248728 22.6027365,27.5282773 22.6708286,27.4601852 L22.7729662,27.3580476 C23.0044794,27.7257449 23.1338525,27.8210724 23.1610893,27.644033 C23.1883261,27.4669935 23.2768445,27.4533753 23.4266472,27.6031779 C23.5764498,27.7529805 23.8692415,27.90959 24.3050309,28.0730111 C24.1688467,28.2091953 23.9577644,28.2704773 23.6717775,28.2568588 L23.8964803,28.4815617 L24.0190455,28.8084021 C24.0326639,29.094389 23.9032909,29.3735624 23.6309225,29.6459308 C23.9305277,29.9455361 24.1484192,30.0272454 24.2846034,29.8910612 C24.3390771,29.5369822 24.6250596,29.5506005 25.1425596,29.9319162 C25.8098623,30.4630347 26.4294911,30.7422081 27.0014648,30.7694449 C27.7368595,31.2324712 28.1045514,31.4639809 28.1045514,31.4639809 C28.0228408,31.2460862 28.0500773,31.0690494 28.1862615,30.9328652 C28.0909325,30.4289836 28.3428695,30.4766474 28.9420801,31.0758579 C29.0918827,31.2256605 29.1872102,31.3550336 29.2280655,31.4639809 C29.2689207,31.5729283 29.3642483,31.7023014 29.5140509,31.852104 C29.9634588,32.3015119 30.3311506,32.5330216 30.6171375,32.54664 C30.6852296,32.4785479 30.7567252,32.4819524 30.8316265,32.5568537 C30.9065278,32.6317551 30.9780235,32.6351596 31.0461156,32.5670675 C30.9235498,32.9892386 30.4673395,33.1458481 29.6774711,33.0369007 L29.9226015,33.6905816 C29.7591804,33.2547921 29.4255341,32.9892369 28.9216525,32.893908 C29.1667841,33.5475922 29.6502308,33.9629478 30.3720071,34.1399873 C30.6716124,34.4395925 31.14825,34.7119569 31.8019342,34.9570884 L31.5568038,34.3034075 L32.2309123,34.977516 L32.4556151,35.2022188 C32.5917993,35.0660346 32.8777819,35.0796528 33.3135713,35.2430738 C33.5314661,35.3247844 33.8651124,35.5903396 34.3145203,36.0397475 C34.4779413,36.4755369 34.33495,36.4687278 33.8855421,36.01932 C33.4361343,35.5699121 33.293143,35.563103 33.456564,35.9988924 C33.6063667,36.1486951 33.7153124,36.1895497 33.7834045,36.1214576 C34.0966282,36.7070497 34.3621834,37.040696 34.5800781,37.1224065 C34.8796834,37.4220118 35.0465066,37.5547894 35.0805526,37.5207434 C35.1145987,37.4866973 35.3154674,37.5854294 35.6831647,37.8169425 C35.6831647,37.8169425 35.3971822,37.8033243 34.8252085,37.7760875 C34.6890243,37.9122717 34.6617878,38.0893085 34.7434984,38.3072032 L34.845636,38.2050656 L35.0499113,38.0007903 C35.4176087,38.2323034 35.9282918,38.4706222 36.581976,38.7157538 L36.6841136,38.6136162 C36.5206926,38.1778267 36.5104789,37.9633398 36.6534724,37.970149 C36.7964658,37.9769582 36.8611523,37.8373715 36.8475339,37.5513846 C36.8475339,37.5513846 37.1743711,37.6739486 37.8280553,37.9190802 C37.9642395,37.782896 38.0119033,37.660332 37.971048,37.5513846 C37.9301927,37.4424373 37.9778565,37.3198733 38.1140407,37.1836891 C37.8144354,36.8840839 37.5931394,36.7308789 37.450146,36.7240697 C37.3071526,36.7172605 37.2288478,36.5708647 37.2152294,36.2848778 C37.0654268,36.1350752 36.9360537,36.0397477 36.8271064,35.9988924 C36.718159,35.9580372 36.5887859,35.8627096 36.4389833,35.712907 C36.234707,35.9171833 36.3572709,36.2440205 36.8066788,36.6934284 C36.9564815,36.843231 36.9973361,36.9521768 36.929244,37.0202689 C36.8611519,37.088361 36.7522062,37.0475063 36.6024035,36.8977037 C36.2347062,36.6661906 36.0338375,36.5674585 35.9997914,36.6015045 C35.9657454,36.6355506 35.8397769,36.6117187 35.6218821,36.5300082 L34.7230708,35.6311969 C34.273663,35.181789 33.6812705,34.7255787 32.9458758,34.2625524 C32.8777837,34.3306445 32.8811882,34.4021402 32.9560896,34.4770415 C33.0309909,34.5519428 33.0343954,34.6234384 32.9663033,34.6915306 L32.6394629,34.5689654 C32.5032787,34.7051496 32.210487,34.5485401 31.7610791,34.0991322 C31.5976581,33.6633427 31.7338402,33.5271606 32.1696297,33.6905816 C32.3875244,33.7722921 32.4964702,33.8131468 32.4964702,33.8131468 C32.4828517,33.52716 32.4181652,33.2922457 32.3024086,33.108397 C32.1866521,32.9245484 32.1219655,32.6896341 32.1083471,32.4036473 C31.8904524,32.3219368 31.6317063,32.1312817 31.332101,31.8316765 C31.5772326,32.4853607 31.4410504,32.6215428 30.9235504,32.240227 C30.555853,32.0087139 30.334557,31.855509 30.2596557,31.7806076 C30.1847544,31.7057063 29.9634584,31.5525014 29.595761,31.3209882 C29.7319452,31.184804 29.7966317,31.0452173 29.7898225,30.9022239 C29.7830133,30.7592305 29.8136543,30.6536893 29.8817464,30.5855972 C29.6502333,30.2178998 29.3506325,29.918299 28.9829351,29.6867859 C28.6152378,29.4552727 28.3496825,29.1216264 28.1862615,28.685837 L26.8788996,28.1955763 C27.0014654,27.7734052 27.3895846,27.6848868 28.0432688,27.9300184 C28.0296504,27.6440315 27.9275137,27.3716672 27.7368558,27.1129172 C27.546198,26.8541672 27.5189615,26.6567031 27.6551457,26.5205189 C27.954751,26.8201241 28.2883973,27.0856793 28.6560947,27.3171925 C28.7378052,27.5350872 28.7616371,27.6610557 28.727591,27.6951018 C28.693545,27.7291478 28.7173768,27.8551163 28.7990874,28.0730111 C29.2212584,27.9504453 29.6195913,28.0764138 29.9940978,28.4509204 L31.0052605,29.4620831 C30.8554579,29.3122804 30.7601304,29.1829074 30.7192751,29.07396 C30.6784199,28.9650126 30.5830923,28.8356396 30.4332897,28.685837 L30.1881594,28.032156 C30.0383567,27.8823534 29.9089837,27.7870259 29.8000363,27.7461706 C29.6910889,27.7053153 29.5208612,27.5010421 29.2893481,27.1333447 C29.4255323,26.9971605 29.1667862,26.8065055 28.513102,26.5613739 C28.513102,26.5613739 28.2952105,26.4796646 27.859421,26.3162436 C28.0500789,25.8259804 27.7028144,25.2744426 26.817617,24.6616137 C26.5997223,24.5799032 26.4703492,24.4845757 26.429494,24.3756283 C26.3886387,24.2666809 26.2592657,24.1713534 26.0413709,24.0896429 C25.8370946,24.2939192 25.8098582,24.470956 25.9596608,24.6207586 C26.2592661,24.9203639 26.4669439,25.1620872 26.5827004,25.3459359 C26.698457,25.5297846 26.8312346,25.6966078 26.9810373,25.8464104 C27.2806425,26.1460157 27.3623518,26.3639071 27.2261676,26.5000913 C27.0082729,26.4183808 26.8584725,26.2685804 26.776762,26.0506857 C26.4771567,25.7510804 26.306929,25.5468072 26.2660737,25.4378598 C26.2252185,25.3289124 26.129891,25.1995394 25.9800883,25.0497368 C25.6804831,24.7501315 25.3127912,24.5186218 24.8770018,24.3552008 C24.2777912,23.7559902 24.012236,23.4223439 24.0803281,23.3542518 C24.1348018,23.0001729 23.8624375,22.5235353 23.2632269,21.9243248 C22.9636217,21.6247195 22.9159579,21.3727825 23.1202342,21.1685062 C23.7194448,21.7677167 24.1279913,22.1081721 24.345886,22.1898827 C24.5637807,22.2715932 24.9042361,22.6801397 25.3672625,23.4155344 C25.5170651,23.565337 25.700911,23.6810919 25.9188057,23.7628024 C25.9051873,23.4768156 25.8439053,23.313397 25.734958,23.2725417 C25.6260106,23.2316864 25.4557829,23.0274132 25.2242697,22.6597158 C24.7748619,22.2103079 24.468452,21.7677159 24.3050309,21.3319264 C24.0598994,20.6782422 23.5764527,20.2628866 22.8546764,20.0858471 C22.9227685,20.017755 22.8070136,19.8339091 22.5074084,19.5343039 C22.4256978,19.3164091 22.2350428,19.057663 21.9354375,18.7580577 L22.1805679,19.4117387 C21.7447784,19.2483176 21.594978,19.0985172 21.7311622,18.962333 L22.1397128,18.5537825 C21.3297319,17.8578834 20.8972436,17.7306057 20.8422402,18.1719492 C20.8288762,18.1302676 20.8132044,18.085454 20.7952248,18.0375083 C20.6454221,17.8877057 20.6045675,17.77876 20.6726596,17.7106678 C20.1006859,17.683431 19.8147034,17.6698128 19.8147034,17.6698128 C19.7284051,17.756111 19.6783363,17.8512953 19.664497,17.9553658 C19.6237096,17.9480151 19.5840162,17.9636396 19.5454166,18.0022392 L19.3207138,17.7775363 L19.7292644,17.3689858 C19.5113697,17.2872752 19.3275237,17.1715204 19.1777211,17.0217178 C19.0279185,16.8719151 18.7691723,16.6812601 18.401475,16.4497469 L18.6057503,16.2454717 C18.9734476,16.4769848 19.2287892,16.5961442 19.3717826,16.6029534 C19.514776,16.6097626 19.8041631,16.6948765 20.2399526,16.8582975 L20.4442279,16.6540222 C19.9267279,16.2727065 19.6475545,16.0275786 19.6066992,15.9186312 C19.5658439,15.8096838 19.3888071,15.4624193 19.0755834,14.8768272 L18.8713082,15.0811025 C18.8032161,15.1491946 18.7146976,15.1628128 18.6057503,15.1219575 C18.4968029,15.0811023 18.4082845,15.0947205 18.3401924,15.1628126 C18.5717056,15.53051 18.5512782,15.8505381 18.2789098,16.1229065 C18.2108177,16.1909986 18.1222993,16.2046168 18.0133519,16.1637615 C17.9044046,16.1229063 17.8158862,16.1365245 17.747794,16.2046166 L17.5230912,15.9799138 C17.5094728,15.6939269 17.271154,15.1832438 16.8081277,14.4478491 C16.637621,14.4397297 16.5058416,14.4461326 16.4127886,14.467058 C16.3170214,14.2937172 16.2525781,14.1628874 16.2194582,14.0745676 C16.4918266,13.8021992 16.1786076,13.2166159 15.2797919,12.3178001 L15.9947554,11.6028366 L16.2194582,11.8275394 L16.444161,12.0522422 C16.3624505,11.8343475 16.1717955,11.5756014 15.8721902,11.2759961 C15.8040981,11.3440882 15.7326025,11.3406837 15.6577012,11.2657824 C15.5827998,11.1908811 15.5113042,11.1874765 15.4432121,11.2555686 L15.3410745,11.3577063 C15.1095613,10.9900089 14.9801882,10.8946814 14.9529514,11.0717208 C14.9257146,11.2487603 14.8371961,11.2623785 14.6873935,11.1125759 C14.5375909,10.9627733 14.2447992,10.8061638 13.8090098,10.6427427 C13.945194,10.5065585 14.1562763,10.4452765 14.4422632,10.458895 L14.2175603,10.2341921 L14.0949952,9.90735168 C14.0813768,9.62136484 14.2107498,9.3421914 14.4831182,9.06982298 C14.183513,8.77021772 13.9656215,8.68850842 13.8294373,8.82469263 C13.7749636,9.17877157 13.4889811,9.16515336 12.9714811,8.78383757 C12.3041784,8.25271916 11.6845496,7.97354571 11.1125759,7.94630887 L10.0094893,7.25177288 C10.0911999,7.46966761 10.0639634,7.64670443 9.92777921,7.78288864 C10.0231082,8.28677021 9.77117115,8.23910645 9.17196063,7.63989593 C9.022158,7.4900933 8.92683048,7.36072025 8.88597522,7.25177288 C8.84511995,7.14282551 8.74979244,7.01345245 8.59998981,6.86364982 C8.15058192,6.41424193 7.78289007,6.18273225 7.49690323,6.16911383 C7.42881112,6.23720593 7.35731549,6.23380138 7.28241417,6.15890006 C7.20751286,6.08399875 7.13601722,6.08059419 7.06792512,6.1486863 C7.1904909,5.72651525 7.64670116,5.56990576 8.43656957,5.67885313 L8.19143922,5.02517219 C8.35486027,5.46096166 8.68850658,5.72651689 9.19238816,5.82184583 C8.94725658,5.16816163 8.46380989,4.75280602 7.74203358,4.57576655 C7.44242832,4.27616129 6.96579074,4.00379696 6.31210653,3.75866538 L6.55723688,4.41234631 L5.88312842,3.73823785 L5.6584256,3.51353503 C5.52224139,3.64971924 5.23625884,3.63610102 4.80046937,3.47267997 C4.58257464,3.39096944 4.24892833,3.12541422 3.79952044,2.67600633 C3.63609939,2.24021686 3.77909066,2.24702597 4.22849855,2.69643386 C4.67790644,3.14584175 4.82089772,3.15265086 4.65747667,2.71686139 C4.50767404,2.56705876 4.3987283,2.52620411 4.3306362,2.59429621 C4.01741252,2.00870411 3.75185729,1.67505781 3.53396256,1.59334728 C3.2343573,1.29374202 3.06753414,1.16096441 3.03348809,1.19501046 C2.99944204,1.22905651 2.79857334,1.13032444 2.43087598,0.898811286 C2.43087598,0.898811286 2.71685853,0.912429503 3.28883221,0.939666345 C3.42501642,0.803482136 3.45225285,0.626445319 3.37054232,0.408550585 L3.26840468,0.510688231 L3.06412939,0.714963523 C2.69643202,0.483450368 2.1857489,0.245131576 1.53206469,-3.55271368e-15 L1.42992705,0.102137646 C1.5933481,0.537927115 1.60356176,0.752414028 1.46056834,0.745604817 C1.31757492,0.738795607 1.25288839,0.878382327 1.26650681,1.16436917 C1.26650681,1.16436917 0.939669613,1.04180522 0.285985409,0.79667364 C0.1498012,0.932857849 0.102137442,1.0554218 0.142992705,1.16436917 C0.183847967,1.27331653 0.136184209,1.39588048 -1.8189894e-12,1.53206469 C0.29960526,1.83166995 0.520901281,1.98487489 0.6638947,1.9916841 C0.80688812,1.99849331 0.885192865,2.14488914 0.898811286,2.43087598 C1.04861392,2.58067861 1.17798697,2.67600613 1.28693434,2.71686139 C1.39588171,2.75771665 1.52525477,2.85304417 1.6750574,3.0028468 C1.87933371,2.79857048 1.75676976,2.47173328 1.30736187,2.02232539 C1.15755924,1.87252276 1.11670459,1.76357703 1.1847967,1.69548493 C1.2528888,1.62739282 1.36183453,1.66824747 1.51163716,1.8180501 C1.87933453,2.04956326 2.08020322,2.14829533 2.11424928,2.11424928 C2.14829533,2.08020322 2.27426383,2.1040351 2.49215857,2.18574563 L3.39096985,3.08455691 C3.84037774,3.5339648 4.43277017,3.99017506 5.1681649,4.45320137 C5.236257,4.38510927 5.23285245,4.31361363 5.15795113,4.23871232 C5.08304982,4.163811 5.07964526,4.09231536 5.14773737,4.02422326 L5.47457783,4.14678843 C5.61076204,4.01060423 5.9035537,4.16721372 6.35296159,4.61662161 C6.51638264,5.05241108 6.38020048,5.18859324 5.94441101,5.02517219 C5.72651627,4.94346167 5.61757054,4.90260702 5.61757054,4.90260702 C5.63118896,5.18859386 5.69587549,5.42350809 5.81163207,5.60735677 C5.92738864,5.79120546 5.99207517,6.02611969 6.00569359,6.31210653 C6.22358833,6.39381706 6.48233445,6.58447209 6.78193971,6.88407735 C6.53680813,6.23039315 6.6729903,6.09421098 7.19049029,6.47552677 C7.55818766,6.70703992 7.77948368,6.86024486 7.85438499,6.93514618 C7.92928631,7.01004749 8.15058233,7.16325243 8.51827969,7.39476558 C8.38209548,7.53094979 8.31740895,7.67053651 8.32421816,7.81352993 C8.33102737,7.95652335 8.30038639,8.06206453 8.23229428,8.13015664 C8.46380744,8.497854 8.7634082,8.79745477 9.13110557,9.02896792 C9.49880293,9.26048108 9.76435816,9.59412738 9.92777921,10.0299169 L11.2351411,10.5201776 C11.1125753,10.9423486 10.7244561,11.030867 10.0707719,10.7857354 C10.0843903,11.0717223 10.186527,11.3440866 10.3771849,11.6028366 C10.5678427,11.8615866 10.5950792,12.0590507 10.458895,12.195235 C10.1592897,11.8956297 9.8256434,11.6300745 9.45794604,11.3985613 C9.37623551,11.1806666 9.35240363,11.0546981 9.38644968,11.020652 C9.42049574,10.986606 9.39666386,10.8606375 9.31495333,10.6427427 C8.89278228,10.7653085 8.49444945,10.63934 8.11994287,10.2648334 L7.10878017,9.25367074 C7.2585828,9.40347337 7.35391032,9.53284643 7.39476558,9.6417938 C7.43562085,9.75074117 7.53094836,9.88011422 7.68075099,10.0299169 L7.92588134,10.6835978 C8.07568397,10.8334004 8.20505703,10.9287279 8.3140044,10.9695832 C8.42295177,11.0104385 8.59317947,11.2147117 8.82469263,11.5824091 C8.68850842,11.7185933 8.94725454,11.9092483 9.60093874,12.1543799 C9.60093874,12.1543799 9.81883021,12.2360892 10.2546197,12.3995102 C10.0639618,12.8897734 10.4112263,13.4413112 11.2964237,14.0541401 C11.5143184,14.1358506 11.6436915,14.2311782 11.6845467,14.3401255 C11.725402,14.4490729 11.854775,14.5444004 12.0726698,14.6261109 C12.2769461,14.4218346 12.3041825,14.2447978 12.1543799,14.0949952 C11.8547746,13.7953899 11.6470968,13.5536666 11.5313403,13.3698179 C11.4155837,13.1859692 11.2828061,13.019146 11.1330034,12.8693434 C10.8333982,12.5697382 10.7516889,12.3518467 10.8878731,12.2156625 C11.1057678,12.297373 11.2555682,12.4471734 11.3372787,12.6650681 C11.636884,12.9646734 11.8071117,13.1689466 11.847967,13.277894 C11.8888222,13.3868414 11.9841497,13.5162144 12.1339524,13.6660171 C12.4335576,13.9656223 12.8012495,14.197132 13.2370389,14.3605531 C13.8362495,14.9597636 14.1018047,15.2934099 14.0337126,15.361502 C13.9792389,15.7155809 14.2516032,16.1922185 14.8508138,16.791429 C15.150419,17.0910343 15.1980828,17.3429713 14.9938065,17.5472476 C14.3945959,16.9480371 13.9860494,16.6075817 13.7681547,16.5258712 C13.55026,16.4441606 13.2098046,16.0356141 12.7467782,15.3002194 C12.5969756,15.1504168 12.4131297,15.0346619 12.195235,14.9529514 C12.2088534,15.2389382 12.2701353,15.4023568 12.3790827,15.4432121 C12.4880301,15.4840674 12.6582578,15.6883406 12.8897709,16.056038 C13.3391788,16.5054459 13.6455887,16.9480379 13.8090098,17.3838274 C14.0541413,18.0375116 14.537588,18.4528672 15.2593643,18.6299067 C15.1912722,18.6979988 15.3070271,18.8818447 15.6066323,19.18145 C15.6883429,19.3993447 15.8789979,19.6580908 16.1786032,19.9576961 L15.9334728,19.3040151 C16.3692623,19.4674362 16.5190627,19.6172366 16.3828784,19.7534208 L15.9743279,20.1619714 C16.7843088,20.8578705 17.2167971,20.9851481 17.2718005,20.5438046 C17.2851645,20.5854862 17.3008363,20.6302998 17.3188159,20.6782455 C17.4686186,20.8280481 17.5094732,20.9369939 17.4413811,21.005086 C18.0133548,21.0323228 18.2993373,21.045941 18.2993373,21.045941 C18.3856356,20.9596428 18.4357044,20.8644586 18.4495437,20.760388 C18.4903311,20.7677387 18.5300245,20.7521143 18.5686241,20.7135146 L18.7933269,20.9382175 L18.3847763,21.346768 C18.602671,21.4284786 18.786517,21.5442334 18.9363196,21.694036 C19.0861222,21.8438387 19.3448683,22.0344937 19.7125657,22.2660069 L19.5082904,22.4702822 C19.1405931,22.238769 18.8852515,22.1196096 18.7422581,22.1128004 C18.5992647,22.1059912 18.3098775,22.0208773 17.8740881,21.8574563 L17.6698128,22.0617316 C18.1873128,22.4430474 18.4664862,22.6881753 18.5073415,22.7971226 C18.5481967,22.90607 18.7252336,23.2533345 19.0384572,23.8389266 L19.2427325,23.6346513 C19.3108246,23.5665592 19.3993431,23.552941 19.5082904,23.5937963 C19.6172378,23.6346515 19.7057562,23.6210333 19.7738483,23.5529412 C19.5423351,23.1852438 19.5627625,22.8652158 19.8351309,22.5928473 C19.903223,22.5247552 19.9917414,22.511137 20.1006888,22.5519923 C20.2096361,22.5928475 20.2981545,22.5792293 20.3662466,22.5111372 L20.5909495,22.73584 C20.6045679,23.0218269 20.8428867,23.53251 21.305913,24.2679047 C21.4764197,24.2760241 21.6081991,24.2696212 21.7012521,24.2486958 Z M21.4783381,23.2146781 C21.4592443,23.1881758 21.4311676,23.1563948 21.394108,23.1193352 C21.1694041,22.8946313 21.0502447,22.6392897 21.0366263,22.3533029 C20.8187315,22.2715924 20.6348856,22.1558375 20.485083,22.0060349 C20.4733389,21.9942909 20.4613857,21.9827561 20.4492231,21.9714306 C20.137063,21.8366265 19.843848,21.6828799 19.569573,21.5101883 C20.0189809,21.9595962 20.2845361,22.2932425 20.3662466,22.5111372 L20.5705219,22.3068619 L21.4783381,23.2146781 Z M17.2382337,20.1609344 C17.2669902,20.1219418 17.3210877,20.1173403 17.4005261,20.1471297 C17.57991,20.2143987 17.7316022,20.2078282 17.8556056,20.1274177 C17.6731486,19.8703391 17.4682258,19.7592926 17.2408347,19.7942758 C17.0984175,19.6518586 17.0975504,19.7740769 17.2382337,20.1609344 Z M17.6648176,16.7443233 C17.9769777,16.8791273 18.2701927,17.0328739 18.5444677,17.2055655 C18.0950598,16.7561576 17.8295046,16.4225113 17.747794,16.2046166 L17.5435188,16.4088919 L16.6357026,15.5010757 C16.6547964,15.527578 16.6828731,15.559359 16.7199327,15.5964186 C16.9446366,15.8211225 17.063796,16.0764641 17.0774144,16.3624509 C17.2953092,16.4441614 17.4791551,16.5599163 17.6289577,16.7097189 C17.6407018,16.721463 17.652655,16.7329977 17.6648176,16.7443233 Z M20.2584351,18.5883361 C20.440892,18.8454147 20.6458149,18.9564612 20.873206,18.921478 C21.0156232,19.0638952 21.0164903,18.9416769 20.875807,18.5548194 C20.8470505,18.593812 20.792953,18.5984135 20.7135146,18.5686241 C20.5341307,18.5013551 20.3824385,18.5079256 20.2584351,18.5883361 Z" id="Combined-Shape"></path>
                    </g>
                </g>
            </g>
        </g>
    </g>
</svg>
