<?xml version="1.0" encoding="UTF-8" standalone="no"?>
<svg width="35px" height="30px" viewBox="0 0 35 30" version="1.1" xmlns="http://www.w3.org/2000/svg" xmlns:xlink="http://www.w3.org/1999/xlink">
    <!-- Generator: Sketch 39.1 (31720) - http://www.bohemiancoding.com/sketch -->
    <title>icon: arena</title>
    <desc>Created with Sketch.</desc>
    <defs>
        <linearGradient x1="50%" y1="0%" x2="50%" y2="100%" id="linearGradient-1">
            <stop stop-color="#F53232" offset="0%"></stop>
            <stop stop-color="#E61717" offset="100%"></stop>
        </linearGradient>
    </defs>
    <g id="Page-1" stroke="none" stroke-width="1" fill="none" fill-rule="evenodd">
        <g id="Desktop-Copy-7" transform="translate(-481.000000, -447.000000)" fill="url(#linearGradient-1)">
            <g id="Group-3" transform="translate(552.000000, 459.000000) scale(1, -1) translate(-552.000000, -459.000000) translate(481.000000, 441.000000)">
                <g id="icon:-arena" transform="translate(17.195122, 15.000000) scale(1, -1) translate(-17.195122, -15.000000) ">
                    <path d="M17.1952938,9.97585912 C17.1952938,9.97585912 9.09183966,1.36087677 7.10612713,0.540193106 C5.46604001,-0.139599211 0,0.0151447656 0,0.0151447656 L14.5231452,12.9869472 L17.1952938,15.3733155 L23.4437197,20.9542347 L25.1831956,19.2452936 L19.8674425,12.9869472 L17.1952938,9.97585912 Z M26.7868287,20.4464177 C26.7868287,20.4464177 26.1406296,20.8744977 25.7361963,21.3468385 C25.1828517,21.992506 25.265733,22.3847719 25.265733,22.3847719 C27.7050574,25.5103975 30.1571063,25.158338 31.0646739,28.321805 C35.0020523,24.2197381 26.9412425,23.6223858 26.7868287,20.4464177 Z M33.7075906,27.620389 L31.9694903,29.3303438 C31.9694903,29.3303438 32.4100337,30 32.6507678,30 C33.2649837,30 34.389556,28.8955064 34.3902438,28.2913967 C34.3905877,28.053537 33.7075906,27.620389 33.7075906,27.620389 Z M32.8577992,27.9819088 L32.8591748,27.9832603 C35.0285331,25.8523208 34.3138967,23.085512 32.145914,20.9542347 C30.6585211,19.4932894 28.8774326,18.7148394 27.2050183,19.056087 C27.6562228,18.6310479 27.973304,18.3560226 27.973304,18.3560226 C28.0314241,18.1597207 27.776246,17.5576382 27.775902,17.5576382 L23.2298103,22.0242657 L24.1408169,22.9192805 C24.2787232,22.3192253 24.8850292,21.4995552 25.5755922,20.7200916 C27.4041398,18.9847967 29.7248166,19.7551379 31.5451105,21.5431403 C33.384663,23.3493877 34.1897466,25.6786562 32.3526015,27.4855793 L30.5694495,29.2374298 L31.0767106,29.7347729 L32.8574553,27.9832603 C32.8574553,27.9829224 32.8577992,27.9822467 32.8577992,27.9819088 Z" id="Shape"></path>
                </g>
            </g>
        </g>
    </g>
</svg>