<?xml version="1.0" encoding="UTF-8" standalone="no"?>
<svg width="35px" height="30px" viewBox="0 0 35 30" version="1.1" xmlns="http://www.w3.org/2000/svg" xmlns:xlink="http://www.w3.org/1999/xlink">
    <!-- Generator: Sketch 39.1 (31720) - http://www.bohemiancoding.com/sketch -->
    <title>Group 4</title>
    <desc>Created with Sketch.</desc>
    <defs>
        <linearGradient x1="50%" y1="0%" x2="50%" y2="100%" id="linearGradient-1">
            <stop stop-color="#F53232" offset="0%"></stop>
            <stop stop-color="#E61717" offset="100%"></stop>
        </linearGradient>
    </defs>
    <g id="Page-1" stroke="none" stroke-width="1" fill="none" fill-rule="evenodd">
        <g id="Desktop-Copy-7" transform="translate(-532.000000, -438.000000)" fill="url(#linearGradient-1)">
            <g id="Group-3" transform="translate(552.000000, 457.500000) scale(1, -1) translate(-552.000000, -457.500000) translate(481.000000, 438.000000)">
                <g id="Group-4" transform="translate(68.500000, 24.000000) scale(-1, 1) translate(-68.500000, -24.000000) translate(51.000000, 9.000000)">
                    <path d="M26.5570185,2.88877948 C26.5570185,2.88877948 25.9108193,3.31685943 25.506386,3.78920021 C24.9530415,4.43486777 25.0359228,4.82713361 25.0359228,4.82713361 C27.4752472,7.95275922 29.9272961,7.60069978 30.8348637,10.7641667 C34.7722421,6.66209985 26.7114322,6.06474756 26.5570185,2.88877948 Z M33.4777803,10.0627508 L31.73968,11.7727055 C31.73968,11.7727055 32.1802235,12.4423618 32.4209576,12.4423618 C33.0351735,12.4423618 34.1597457,11.3378682 34.1604335,10.7337585 C34.1607774,10.4958988 33.4777803,10.0627508 33.4777803,10.0627508 Z M32.6279889,10.4242706 L32.6293645,10.425622 C34.7987228,8.29468259 34.0840864,5.5278738 31.9161038,3.3965965 C30.4287108,1.93565118 28.6476223,1.15720114 26.975208,1.49844877 C27.4264125,1.07340964 27.7434938,0.798384316 27.7434938,0.798384316 C27.8016139,0.602082459 27.5464357,0 27.5460918,0 L23,4.46662745 L23.9110067,5.36164228 C24.0489129,4.76158704 24.655219,3.94191698 25.345782,3.16245332 C27.1743295,1.42715842 29.4950064,2.19749962 31.3153002,3.98550207 C33.1548527,5.79174945 33.9599364,8.12101795 32.1227912,9.92794107 L30.3396392,11.6797915 L30.8469004,12.1771346 L32.627645,10.425622 C32.627645,10.4252842 32.6279889,10.4246084 32.6279889,10.4242706 Z" id="Shape" transform="translate(28.580217, 6.221181) scale(1, -1) translate(-28.580217, -6.221181) "></path>
                    <path d="M17.1952938,18.9758591 C17.1952938,18.9758591 9.09183966,10.3608768 7.10612713,9.54019311 C5.46604001,8.86040079 0,9.01514477 0,9.01514477 L14.5231452,21.9869472 L17.1952938,24.3733155 L23.4437197,29.9542347 L25.1831956,28.2452936 L19.8674425,21.9869472 L17.1952938,18.9758591 Z" id="Shape" transform="translate(12.591598, 19.477117) scale(1, -1) translate(-12.591598, -19.477117) "></path>
                </g>
            </g>
        </g>
    </g>
</svg>