<?xml version="1.0" encoding="UTF-8" standalone="no"?>
<svg width="28px" height="11px" viewBox="0 0 28 11" version="1.1" xmlns="http://www.w3.org/2000/svg" xmlns:xlink="http://www.w3.org/1999/xlink">
    <!-- Generator: Sketch 39.1 (31720) - http://www.bohemiancoding.com/sketch -->
    <title>Group 2</title>
    <desc>Created with Sketch.</desc>
    <defs>
        <path d="M2.32,3.48 L2.35,3.48 C2.5433343,3.2599989 2.7599988,3.08166735 3,2.945 C3.2400012,2.80833265 3.5399982,2.74 3.9,2.74 C4.4933363,2.74 4.9399985,2.9199982 5.24,3.28 C5.5400015,3.6400018 5.69,4.1133304 5.69,4.7 L5.69,8 L3.8,8 L3.8,5.16 C3.8,4.893332 3.7433339,4.6800008 3.63,4.52 C3.5166661,4.3599992 3.3366679,4.28 3.09,4.28 C2.8499988,4.28 2.66166735,4.37166575 2.525,4.555 C2.38833265,4.73833425 2.32,4.9699986 2.32,5.25 L2.32,8 L0.430000004,8 L0.430000004,0.85 L2.32,0.85 L2.32,3.48 Z M8.72,8.16 C8.2933312,8.16 7.90833505,8.09166735 7.565,7.955 C7.22166495,7.81833265 6.92833455,7.6300012 6.685,7.39 C6.44166545,7.1499988 6.253334,6.86500165 6.12,6.535 C5.986666,6.20499835 5.92,5.8466686 5.92,5.46 C5.92,5.0733314 5.986666,4.71500165 6.12,4.385 C6.253334,4.05499835 6.44166545,3.76833455 6.685,3.525 C6.92833455,3.28166545 7.22166495,3.09166735 7.565,2.955 C7.90833505,2.81833265 8.2933312,2.75 8.72,2.75 C9.1466688,2.75 9.53166495,2.81833265 9.875,2.955 C10.2183351,3.09166735 10.5099988,3.28166545 10.75,3.525 C10.9900012,3.76833455 11.1749994,4.05499835 11.305,4.385 C11.4350007,4.71500165 11.5,5.0733314 11.5,5.46 C11.5,5.8466686 11.4350007,6.20499835 11.305,6.535 C11.1749994,6.86500165 10.9900012,7.1499988 10.75,7.39 C10.5099988,7.6300012 10.2183351,7.81833265 9.875,7.955 C9.53166495,8.09166735 9.1466688,8.16 8.72,8.16 L8.72,8.16 Z M8.7,6.9 C8.9933348,6.9 9.2133326,6.76833465 9.36,6.505 C9.5066674,6.24166535 9.58,5.8933355 9.58,5.46 C9.58,5.0266645 9.5066674,4.67833465 9.36,4.415 C9.2133326,4.15166535 8.9933348,4.02 8.7,4.02 C8.4066652,4.02 8.1900007,4.15166535 8.05,4.415 C7.9099993,4.67833465 7.84,5.0266645 7.84,5.46 C7.84,5.8933355 7.9099993,6.24166535 8.05,6.505 C8.1900007,6.76833465 8.4066652,6.9 8.7,6.9 L8.7,6.9 Z M11.16,2.9 L13.11,2.9 L13.61,4.75 C13.6366668,4.8500005 13.6633332,4.9599994 13.69,5.08 C13.7166668,5.2000006 13.7433332,5.3099995 13.77,5.41 C13.7966668,5.5300006 13.8233332,5.6499994 13.85,5.77 L13.87,5.77 C13.8966668,5.6433327 13.9233332,5.5200006 13.95,5.4 C13.9766668,5.2933328 14.0016665,5.1800006 14.025,5.06 C14.0483334,4.9399994 14.0766665,4.8233339 14.11,4.71 L14.55,2.9 L16.15,2.9 L16.59,4.71 C16.6166668,4.8233339 16.6433332,4.9433327 16.67,5.07 C16.6966668,5.1966673 16.7233332,5.3133328 16.75,5.42 C16.7766668,5.5466673 16.8033332,5.6699994 16.83,5.79 L16.85,5.79 C16.8833335,5.6633327 16.9133332,5.5400006 16.94,5.42 C16.9666668,5.3133328 16.9933332,5.2000006 17.02,5.08 C17.0466668,4.9599994 17.0733332,4.8500005 17.1,4.75 L17.59,2.9 L19.5,2.9 L17.88,8 L16.06,8 L15.54,5.88 C15.5133332,5.7866662 15.4883334,5.6833339 15.465,5.57 C15.4416665,5.4566661 15.4200001,5.3533338 15.4,5.26 C15.3733332,5.1466661 15.3500001,5.0366672 15.33,4.93 L15.31,4.93 C15.2899999,5.0366672 15.2666668,5.1466661 15.24,5.26 C15.2199999,5.3533338 15.1983334,5.4566661 15.175,5.57 C15.1516665,5.6833339 15.1266668,5.7866662 15.1,5.88 L14.58,8 L12.79,8 L11.16,2.9 Z M22.11,5.42 C22.11,5.1999989 22.1116666,5.01833405 22.115,4.875 C22.1183333,4.73166595 22.1299999,4.60833385 22.15,4.505 C22.1700001,4.40166615 22.2033331,4.3100004 22.25,4.23 C22.2966669,4.1499996 22.3633329,4.0633338 22.45,3.97 C22.5633339,3.8433327 22.6899993,3.7400004 22.83,3.66 C22.9700007,3.5799996 23.101666,3.50166705 23.225,3.425 C23.3483339,3.34833295 23.4516662,3.26166715 23.535,3.165 C23.6183337,3.06833285 23.66,2.9433341 23.66,2.79 C23.66,2.6233325 23.5966673,2.49500045 23.47,2.405 C23.3433327,2.31499955 23.1933342,2.27 23.02,2.27 C22.7933322,2.27 22.608334,2.3433326 22.465,2.49 C22.3216659,2.6366674 22.25,2.8366654 22.25,3.09 L20.33,3.09 C20.3366667,2.7166648 20.4083326,2.3833348 20.545,2.09 C20.6816673,1.7966652 20.8733321,1.54833435 21.12,1.345 C21.3666679,1.14166565 21.6633316,0.9866672 22.01,0.88 C22.3566684,0.7733328 22.7433312,0.72 23.17,0.72 C23.5300018,0.72 23.8666651,0.7666662 24.18,0.86 C24.4933349,0.9533338 24.7649988,1.08499915 24.995,1.255 C25.2250011,1.42500085 25.4049993,1.63499875 25.535,1.885 C25.6650006,2.13500125 25.73,2.4133318 25.73,2.72 C25.73,2.9400011 25.7033336,3.1299992 25.65,3.29 C25.5966664,3.4500008 25.5250004,3.5899994 25.435,3.71 C25.3449995,3.8300006 25.2433339,3.93166625 25.13,4.015 C25.0166661,4.09833375 24.9033339,4.173333 24.79,4.24 C24.5633322,4.3666673 24.3816673,4.4666663 24.245,4.54 C24.1083326,4.6133337 24.0033337,4.6966662 23.93,4.79 C23.863333,4.8833338 23.8216667,4.97499955 23.805,5.065 C23.7883332,5.15500045 23.78,5.2733326 23.78,5.42 L22.11,5.42 Z M19.92,6.09 L21.87,6.09 L21.87,8 L19.92,8 L19.92,6.09 Z" id="path-1"></path>
    </defs>
    <g id="Page-1" stroke="none" stroke-width="1" fill="none" fill-rule="evenodd">
        <g id="Desktop-Copy-7" transform="translate(-436.000000, -455.000000)">
            <g id="Group-2" transform="translate(437.000000, 456.000000)">
                <g id="how?">
                    <use fill="#FFFFFF" fill-rule="evenodd" xlink:href="#path-1"></use>
                    <use fill="black" fill-opacity="1" xlink:href="#path-1"></use>
                </g>
            </g>
        </g>
    </g>
</svg>